<mxfile host="app.diagrams.net" modified="2020-05-01T21:25:41.336Z" agent="5.0 (Macintosh; Intel Mac OS X 10_15_1) AppleWebKit/537.36 (KHTML, like Gecko) Chrome/81.0.4044.122 Safari/537.36" etag="9ffpWVRAgIOkyrZPOvhM" version="13.0.3" type="github" pages="15">
  <diagram id="zc2JyozHEqRpT-gC6uIP" name="01 - flow">
    <mxGraphModel dx="1502" dy="739" grid="1" gridSize="10" guides="1" tooltips="1" connect="1" arrows="1" fold="1" page="1" pageScale="1" pageWidth="1920" pageHeight="1200" math="0" shadow="0">
      <root>
        <mxCell id="0" />
        <mxCell id="1" parent="0" />
        <mxCell id="xYnWrMoKkDDk2mpb4D-v-1" value="How do we know what events to create?" style="rounded=0;whiteSpace=wrap;html=1;fillColor=#dae8fc;strokeColor=#6c8ebf;fontSize=17;" parent="1" vertex="1">
          <mxGeometry x="560" y="190" width="370" height="60" as="geometry" />
        </mxCell>
        <mxCell id="xYnWrMoKkDDk2mpb4D-v-2" value="Event Design" style="text;html=1;strokeColor=none;fillColor=none;align=center;verticalAlign=middle;whiteSpace=wrap;rounded=0;fontStyle=1;fontSize=22;" parent="1" vertex="1">
          <mxGeometry x="629.38" y="160" width="231.25" height="20" as="geometry" />
        </mxCell>
        <mxCell id="xYnWrMoKkDDk2mpb4D-v-3" value="What data should each event contain?" style="rounded=0;whiteSpace=wrap;html=1;fillColor=#dae8fc;strokeColor=#6c8ebf;fontSize=17;" parent="1" vertex="1">
          <mxGeometry x="560" y="260" width="370" height="60" as="geometry" />
        </mxCell>
      </root>
    </mxGraphModel>
  </diagram>
  <diagram id="nlcRY1AcKBIknHkFmP1X" name="02 - tricky">
    
    <mxGraphModel dx="1502" dy="739" grid="1" gridSize="10" guides="1" tooltips="1" connect="1" arrows="1" fold="1" page="1" pageScale="1" pageWidth="1920" pageHeight="1200" math="0" shadow="0">
      
      <root>
        
        <mxCell id="lvnMD7tP7u2Gr5IAh2oA-0" />
        
        <mxCell id="lvnMD7tP7u2Gr5IAh2oA-1" parent="lvnMD7tP7u2Gr5IAh2oA-0" />
        
        <mxCell id="lvnMD7tP7u2Gr5IAh2oA-4" style="edgeStyle=orthogonalEdgeStyle;rounded=0;orthogonalLoop=1;jettySize=auto;html=1;exitX=0.5;exitY=1;exitDx=0;exitDy=0;fontSize=22;" parent="lvnMD7tP7u2Gr5IAh2oA-1" source="lvnMD7tP7u2Gr5IAh2oA-2" target="lvnMD7tP7u2Gr5IAh2oA-3" edge="1">
          
          <mxGeometry relative="1" as="geometry" />
          
        </mxCell>
        
        <mxCell id="lvnMD7tP7u2Gr5IAh2oA-2" value="Deciding on&amp;nbsp;&lt;i&gt;what&lt;/i&gt;&amp;nbsp;events to publish and what data they should contain is &lt;i&gt;tricky&lt;/i&gt;" style="rounded=0;whiteSpace=wrap;html=1;fontSize=22;fillColor=#ffe6cc;strokeColor=#d79b00;" parent="lvnMD7tP7u2Gr5IAh2oA-1" vertex="1">
          
          <mxGeometry x="600" y="260" width="450" height="80" as="geometry" />
          
        </mxCell>
        
        <mxCell id="lvnMD7tP7u2Gr5IAh2oA-6" style="edgeStyle=orthogonalEdgeStyle;rounded=0;orthogonalLoop=1;jettySize=auto;html=1;exitX=0.5;exitY=1;exitDx=0;exitDy=0;fontSize=22;" parent="lvnMD7tP7u2Gr5IAh2oA-1" source="lvnMD7tP7u2Gr5IAh2oA-3" target="lvnMD7tP7u2Gr5IAh2oA-5" edge="1">
          
          <mxGeometry relative="1" as="geometry" />
          
        </mxCell>
        
        <mxCell id="lvnMD7tP7u2Gr5IAh2oA-3" value="Depends on the purpose of your app and the features it implements" style="rounded=0;whiteSpace=wrap;html=1;fontSize=22;fillColor=#ffe6cc;strokeColor=#d79b00;" parent="lvnMD7tP7u2Gr5IAh2oA-1" vertex="1">
          
          <mxGeometry x="600" y="360" width="450" height="80" as="geometry" />
          
        </mxCell>
        
        <mxCell id="lvnMD7tP7u2Gr5IAh2oA-8" style="edgeStyle=orthogonalEdgeStyle;rounded=0;orthogonalLoop=1;jettySize=auto;html=1;exitX=0.5;exitY=1;exitDx=0;exitDy=0;fontSize=22;" parent="lvnMD7tP7u2Gr5IAh2oA-1" source="lvnMD7tP7u2Gr5IAh2oA-5" target="lvnMD7tP7u2Gr5IAh2oA-7" edge="1">
          
          <mxGeometry relative="1" as="geometry" />
          
        </mxCell>
        
        <mxCell id="lvnMD7tP7u2Gr5IAh2oA-5" value="Also involves thinking about concurrency issues!" style="rounded=0;whiteSpace=wrap;html=1;fontSize=22;fillColor=#ffe6cc;strokeColor=#d79b00;" parent="lvnMD7tP7u2Gr5IAh2oA-1" vertex="1">
          
          <mxGeometry x="600" y="460" width="450" height="80" as="geometry" />
          
        </mxCell>
        
        <mxCell id="lvnMD7tP7u2Gr5IAh2oA-7" value="At best, I can give you some rules of thumb and show you how I applied them to this project" style="rounded=0;whiteSpace=wrap;html=1;fontSize=22;fillColor=#ffe6cc;strokeColor=#d79b00;" parent="lvnMD7tP7u2Gr5IAh2oA-1" vertex="1">
          
          <mxGeometry x="600" y="560" width="450" height="80" as="geometry" />
          
        </mxCell>
        
      </root>
      
    </mxGraphModel>
    
  </diagram>
  <diagram id="6PlWj7q3hQiAYMFFbgiy" name="03 - rules">
    
    <mxGraphModel dx="1502" dy="739" grid="1" gridSize="10" guides="1" tooltips="1" connect="1" arrows="1" fold="1" page="1" pageScale="1" pageWidth="1920" pageHeight="1200" math="0" shadow="0">
      
      <root>
        
        <mxCell id="fb3AtHmrDD0A9RMqXQ9R-0" />
        
        <mxCell id="fb3AtHmrDD0A9RMqXQ9R-1" parent="fb3AtHmrDD0A9RMqXQ9R-0" />
        
        <mxCell id="fb3AtHmrDD0A9RMqXQ9R-6" style="edgeStyle=orthogonalEdgeStyle;rounded=0;orthogonalLoop=1;jettySize=auto;html=1;exitX=1;exitY=0.5;exitDx=0;exitDy=0;fontSize=22;" parent="fb3AtHmrDD0A9RMqXQ9R-1" source="fb3AtHmrDD0A9RMqXQ9R-2" target="fb3AtHmrDD0A9RMqXQ9R-3" edge="1">
          
          <mxGeometry relative="1" as="geometry" />
          
        </mxCell>
        
        <mxCell id="fb3AtHmrDD0A9RMqXQ9R-2" value="Create/Edit/Delete&lt;br&gt;Blog Post" style="rounded=0;whiteSpace=wrap;html=1;fontSize=22;fillColor=#ffe6cc;strokeColor=#d79b00;" parent="fb3AtHmrDD0A9RMqXQ9R-1" vertex="1">
          
          <mxGeometry x="340" y="270" width="230" height="100" as="geometry" />
          
        </mxCell>
        
        <mxCell id="fb3AtHmrDD0A9RMqXQ9R-5" style="edgeStyle=orthogonalEdgeStyle;rounded=0;orthogonalLoop=1;jettySize=auto;html=1;exitX=0.5;exitY=1;exitDx=0;exitDy=0;fontSize=22;" parent="fb3AtHmrDD0A9RMqXQ9R-1" source="fb3AtHmrDD0A9RMqXQ9R-3" target="fb3AtHmrDD0A9RMqXQ9R-4" edge="1">
          
          <mxGeometry relative="1" as="geometry" />
          
        </mxCell>
        
        <mxCell id="fb3AtHmrDD0A9RMqXQ9R-8" style="edgeStyle=orthogonalEdgeStyle;rounded=0;orthogonalLoop=1;jettySize=auto;html=1;exitX=1;exitY=0.5;exitDx=0;exitDy=0;fontSize=22;" parent="fb3AtHmrDD0A9RMqXQ9R-1" source="fb3AtHmrDD0A9RMqXQ9R-3" target="fb3AtHmrDD0A9RMqXQ9R-7" edge="1">
          
          <mxGeometry relative="1" as="geometry" />
          
        </mxCell>
        
        <mxCell id="fb3AtHmrDD0A9RMqXQ9R-3" value="Blog Service" style="rounded=0;whiteSpace=wrap;html=1;fontSize=22;fillColor=#dae8fc;strokeColor=#6c8ebf;" parent="fb3AtHmrDD0A9RMqXQ9R-1" vertex="1">
          
          <mxGeometry x="630" y="270" width="240" height="100" as="geometry" />
          
        </mxCell>
        
        <mxCell id="fb3AtHmrDD0A9RMqXQ9R-4" value="Database" style="rounded=0;whiteSpace=wrap;html=1;fontSize=22;fillColor=#dae8fc;strokeColor=#6c8ebf;" parent="fb3AtHmrDD0A9RMqXQ9R-1" vertex="1">
          
          <mxGeometry x="630" y="410" width="240" height="60" as="geometry" />
          
        </mxCell>
        
        <mxCell id="fb3AtHmrDD0A9RMqXQ9R-7" value="{ id: &#39;asfd&#39;, content: &#39;Im a blog&#39; }" style="rounded=0;whiteSpace=wrap;html=1;fontSize=22;fillColor=#f8cecc;strokeColor=#b85450;" parent="fb3AtHmrDD0A9RMqXQ9R-1" vertex="1">
          
          <mxGeometry x="930" y="270" width="240" height="100" as="geometry" />
          
        </mxCell>
        
        <mxCell id="fb3AtHmrDD0A9RMqXQ9R-9" value="Event, blog:created" style="rounded=0;whiteSpace=wrap;html=1;fontSize=22;fillColor=#f8cecc;strokeColor=#b85450;fontStyle=1" parent="fb3AtHmrDD0A9RMqXQ9R-1" vertex="1">
          
          <mxGeometry x="930" y="240" width="240" height="30" as="geometry" />
          
        </mxCell>
        
        <mxCell id="fb3AtHmrDD0A9RMqXQ9R-10" value="&lt;b&gt;Rule #1&lt;/b&gt; - Make &lt;i&gt;one &lt;/i&gt;service in charge of all aspects of a Resource.&amp;nbsp; Emit events whenever changing that data" style="text;html=1;strokeColor=none;fillColor=none;align=center;verticalAlign=middle;whiteSpace=wrap;rounded=0;fontSize=22;" parent="fb3AtHmrDD0A9RMqXQ9R-1" vertex="1">
          
          <mxGeometry x="510" y="140" width="480" height="60" as="geometry" />
          
        </mxCell>
        
        <mxCell id="dYZyMbPTbNGxENe32Qo0-0" value="Request" style="rounded=0;whiteSpace=wrap;html=1;fontSize=22;fillColor=#ffe6cc;strokeColor=#d79b00;fontStyle=1" parent="fb3AtHmrDD0A9RMqXQ9R-1" vertex="1">
          
          <mxGeometry x="340" y="240" width="230" height="30" as="geometry" />
          
        </mxCell>
        
      </root>
      
    </mxGraphModel>
    
  </diagram>
  <diagram name="04 - rules" id="O2hlp21cntMNMedlpFYK">
    
    <mxGraphModel dx="1502" dy="739" grid="1" gridSize="10" guides="1" tooltips="1" connect="1" arrows="1" fold="1" page="1" pageScale="1" pageWidth="1920" pageHeight="1200" math="0" shadow="0">
      
      <root>
        
        <mxCell id="Qgxherks9i4188CqhPcJ-0" />
        
        <mxCell id="Qgxherks9i4188CqhPcJ-1" parent="Qgxherks9i4188CqhPcJ-0" />
        
        <mxCell id="Qgxherks9i4188CqhPcJ-2" style="edgeStyle=orthogonalEdgeStyle;rounded=0;orthogonalLoop=1;jettySize=auto;html=1;exitX=1;exitY=0.5;exitDx=0;exitDy=0;fontSize=22;" parent="Qgxherks9i4188CqhPcJ-1" source="Qgxherks9i4188CqhPcJ-3" target="Qgxherks9i4188CqhPcJ-6" edge="1">
          
          <mxGeometry relative="1" as="geometry" />
          
        </mxCell>
        
        <mxCell id="Qgxherks9i4188CqhPcJ-3" value="Create/Edit/Delete&lt;br&gt;Blog Post" style="rounded=0;whiteSpace=wrap;html=1;fontSize=22;fillColor=#ffe6cc;strokeColor=#d79b00;" parent="Qgxherks9i4188CqhPcJ-1" vertex="1">
          
          <mxGeometry x="340" y="270" width="230" height="100" as="geometry" />
          
        </mxCell>
        
        <mxCell id="Qgxherks9i4188CqhPcJ-4" style="edgeStyle=orthogonalEdgeStyle;rounded=0;orthogonalLoop=1;jettySize=auto;html=1;exitX=0.5;exitY=1;exitDx=0;exitDy=0;fontSize=22;" parent="Qgxherks9i4188CqhPcJ-1" source="Qgxherks9i4188CqhPcJ-6" target="Qgxherks9i4188CqhPcJ-7" edge="1">
          
          <mxGeometry relative="1" as="geometry" />
          
        </mxCell>
        
        <mxCell id="Qgxherks9i4188CqhPcJ-5" style="edgeStyle=orthogonalEdgeStyle;rounded=0;orthogonalLoop=1;jettySize=auto;html=1;exitX=1;exitY=0.5;exitDx=0;exitDy=0;fontSize=22;" parent="Qgxherks9i4188CqhPcJ-1" source="Qgxherks9i4188CqhPcJ-6" target="Qgxherks9i4188CqhPcJ-8" edge="1">
          
          <mxGeometry relative="1" as="geometry" />
          
        </mxCell>
        
        <mxCell id="Qgxherks9i4188CqhPcJ-6" value="Service in 100% control of Resource XYZ" style="rounded=0;whiteSpace=wrap;html=1;fontSize=22;fillColor=#dae8fc;strokeColor=#6c8ebf;" parent="Qgxherks9i4188CqhPcJ-1" vertex="1">
          
          <mxGeometry x="630" y="270" width="240" height="100" as="geometry" />
          
        </mxCell>
        
        <mxCell id="Qgxherks9i4188CqhPcJ-7" value="Database" style="rounded=0;whiteSpace=wrap;html=1;fontSize=22;fillColor=#dae8fc;strokeColor=#6c8ebf;" parent="Qgxherks9i4188CqhPcJ-1" vertex="1">
          
          <mxGeometry x="630" y="410" width="240" height="60" as="geometry" />
          
        </mxCell>
        
        <mxCell id="Qgxherks9i4188CqhPcJ-8" value="{ id: &#39;asfd&#39;, content: &#39;Im a blog&#39;, owner: { id: &#39;1j2&#39;, name: &#39;Alex&#39; } }" style="rounded=0;whiteSpace=wrap;html=1;fontSize=22;fillColor=#f8cecc;strokeColor=#b85450;" parent="Qgxherks9i4188CqhPcJ-1" vertex="1">
          
          <mxGeometry x="930" y="270" width="330" height="100" as="geometry" />
          
        </mxCell>
        
        <mxCell id="Qgxherks9i4188CqhPcJ-9" value="Event" style="rounded=0;whiteSpace=wrap;html=1;fontSize=22;fillColor=#f8cecc;strokeColor=#b85450;fontStyle=1" parent="Qgxherks9i4188CqhPcJ-1" vertex="1">
          
          <mxGeometry x="930" y="240" width="330" height="30" as="geometry" />
          
        </mxCell>
        
        <mxCell id="Qgxherks9i4188CqhPcJ-10" value="&lt;b&gt;Rule #2&lt;/b&gt;&amp;nbsp;- If you don&#39;t know how the event will be used, publish all available data about the resource" style="text;html=1;strokeColor=none;fillColor=none;align=center;verticalAlign=middle;whiteSpace=wrap;rounded=0;fontSize=22;" parent="Qgxherks9i4188CqhPcJ-1" vertex="1">
          
          <mxGeometry x="560" y="150" width="480" height="60" as="geometry" />
          
        </mxCell>
        
        <mxCell id="8H8skE2PdtktcQQ7PQDF-0" value="Request" style="rounded=0;whiteSpace=wrap;html=1;fontSize=22;fillColor=#ffe6cc;strokeColor=#d79b00;fontStyle=1" parent="Qgxherks9i4188CqhPcJ-1" vertex="1">
          
          <mxGeometry x="340" y="240" width="230" height="30" as="geometry" />
          
        </mxCell>
        
      </root>
      
    </mxGraphModel>
    
  </diagram>
  <diagram name="05 - rule" id="ORgsAPSSiGpnvQuKxjXB">
    
    <mxGraphModel dx="1502" dy="739" grid="1" gridSize="10" guides="1" tooltips="1" connect="1" arrows="1" fold="1" page="1" pageScale="1" pageWidth="1920" pageHeight="1200" math="0" shadow="0">
      
      <root>
        
        <mxCell id="ZWxAOh7SIgB77R5UcuSt-0" />
        
        <mxCell id="ZWxAOh7SIgB77R5UcuSt-1" parent="ZWxAOh7SIgB77R5UcuSt-0" />
        
        <mxCell id="yHPPPvbZj8iBd604dS1X-0" style="edgeStyle=orthogonalEdgeStyle;rounded=0;orthogonalLoop=1;jettySize=auto;html=1;exitX=1;exitY=0.5;exitDx=0;exitDy=0;fontSize=22;" parent="ZWxAOh7SIgB77R5UcuSt-1" source="yHPPPvbZj8iBd604dS1X-1" target="yHPPPvbZj8iBd604dS1X-4" edge="1">
          
          <mxGeometry relative="1" as="geometry" />
          
        </mxCell>
        
        <mxCell id="yHPPPvbZj8iBd604dS1X-1" value="Create/Edit/Delete&lt;br&gt;Blog Post" style="rounded=0;whiteSpace=wrap;html=1;fontSize=22;fillColor=#ffe6cc;strokeColor=#d79b00;" parent="ZWxAOh7SIgB77R5UcuSt-1" vertex="1">
          
          <mxGeometry x="340" y="270" width="230" height="100" as="geometry" />
          
        </mxCell>
        
        <mxCell id="yHPPPvbZj8iBd604dS1X-2" style="edgeStyle=orthogonalEdgeStyle;rounded=0;orthogonalLoop=1;jettySize=auto;html=1;exitX=0.5;exitY=1;exitDx=0;exitDy=0;fontSize=22;" parent="ZWxAOh7SIgB77R5UcuSt-1" source="yHPPPvbZj8iBd604dS1X-4" target="yHPPPvbZj8iBd604dS1X-5" edge="1">
          
          <mxGeometry relative="1" as="geometry" />
          
        </mxCell>
        
        <mxCell id="yHPPPvbZj8iBd604dS1X-3" style="edgeStyle=orthogonalEdgeStyle;rounded=0;orthogonalLoop=1;jettySize=auto;html=1;exitX=1;exitY=0.5;exitDx=0;exitDy=0;fontSize=22;" parent="ZWxAOh7SIgB77R5UcuSt-1" source="yHPPPvbZj8iBd604dS1X-4" target="yHPPPvbZj8iBd604dS1X-6" edge="1">
          
          <mxGeometry relative="1" as="geometry" />
          
        </mxCell>
        
        <mxCell id="yHPPPvbZj8iBd604dS1X-4" value="Service in 100% control of Resource XYZ" style="rounded=0;whiteSpace=wrap;html=1;fontSize=22;fillColor=#dae8fc;strokeColor=#6c8ebf;" parent="ZWxAOh7SIgB77R5UcuSt-1" vertex="1">
          
          <mxGeometry x="630" y="270" width="240" height="100" as="geometry" />
          
        </mxCell>
        
        <mxCell id="yHPPPvbZj8iBd604dS1X-5" value="Database" style="rounded=0;whiteSpace=wrap;html=1;fontSize=22;fillColor=#dae8fc;strokeColor=#6c8ebf;" parent="ZWxAOh7SIgB77R5UcuSt-1" vertex="1">
          
          <mxGeometry x="630" y="410" width="240" height="60" as="geometry" />
          
        </mxCell>
        
        <mxCell id="yHPPPvbZj8iBd604dS1X-6" value="{ id: &#39;asfd&#39;, content: &#39;Im a blog&#39; }" style="rounded=0;whiteSpace=wrap;html=1;fontSize=22;fillColor=#f8cecc;strokeColor=#b85450;" parent="ZWxAOh7SIgB77R5UcuSt-1" vertex="1">
          
          <mxGeometry x="930" y="270" width="330" height="100" as="geometry" />
          
        </mxCell>
        
        <mxCell id="yHPPPvbZj8iBd604dS1X-7" value="Event" style="rounded=0;whiteSpace=wrap;html=1;fontSize=22;fillColor=#f8cecc;strokeColor=#b85450;fontStyle=1" parent="ZWxAOh7SIgB77R5UcuSt-1" vertex="1">
          
          <mxGeometry x="930" y="240" width="330" height="30" as="geometry" />
          
        </mxCell>
        
        <mxCell id="yHPPPvbZj8iBd604dS1X-8" value="&lt;b&gt;Rule #3&lt;/b&gt;&amp;nbsp;- If you &lt;i&gt;do &lt;/i&gt;know how the event will be consumed (and don&#39;t expect it to change soon), publish only the required info" style="text;html=1;strokeColor=none;fillColor=none;align=center;verticalAlign=middle;whiteSpace=wrap;rounded=0;fontSize=22;" parent="ZWxAOh7SIgB77R5UcuSt-1" vertex="1">
          
          <mxGeometry x="560" y="140" width="480" height="60" as="geometry" />
          
        </mxCell>
        
        <mxCell id="yHPPPvbZj8iBd604dS1X-9" value="Request" style="rounded=0;whiteSpace=wrap;html=1;fontSize=22;fillColor=#ffe6cc;strokeColor=#d79b00;fontStyle=1" parent="ZWxAOh7SIgB77R5UcuSt-1" vertex="1">
          
          <mxGeometry x="340" y="240" width="230" height="30" as="geometry" />
          
        </mxCell>
        
      </root>
      
    </mxGraphModel>
    
  </diagram>
  <diagram id="VT02AAa2Fezraw7b8oVS" name="06 - dm">
    
    <mxGraphModel dx="1502" dy="739" grid="1" gridSize="10" guides="1" tooltips="1" connect="1" arrows="1" fold="1" page="1" pageScale="1" pageWidth="1920" pageHeight="1200" math="0" shadow="0">
      
      <root>
        
        <mxCell id="iu_38Fmg2Qh9nAeFJ_WT-0" />
        
        <mxCell id="iu_38Fmg2Qh9nAeFJ_WT-1" parent="iu_38Fmg2Qh9nAeFJ_WT-0" />
        
        <mxCell id="iu_38Fmg2Qh9nAeFJ_WT-6" value="Tickets Service" style="rounded=0;whiteSpace=wrap;html=1;fontSize=19;fillColor=#f5f5f5;strokeColor=#666666;fontColor=#333333;fontStyle=1" parent="iu_38Fmg2Qh9nAeFJ_WT-1" vertex="1">
          
          <mxGeometry x="660" y="180" width="180" height="25" as="geometry" />
          
        </mxCell>
        
        <mxCell id="iu_38Fmg2Qh9nAeFJ_WT-7" value="" style="rounded=0;whiteSpace=wrap;html=1;fontSize=22;fillColor=#f5f5f5;strokeColor=#666666;fontColor=#333333;fontStyle=1" parent="iu_38Fmg2Qh9nAeFJ_WT-1" vertex="1">
          
          <mxGeometry x="660" y="205" width="180" height="130" as="geometry" />
          
        </mxCell>
        
        <mxCell id="iu_38Fmg2Qh9nAeFJ_WT-8" value="Orders Service" style="rounded=0;whiteSpace=wrap;html=1;fontSize=19;fillColor=#f5f5f5;strokeColor=#666666;fontColor=#333333;fontStyle=1" parent="iu_38Fmg2Qh9nAeFJ_WT-1" vertex="1">
          
          <mxGeometry x="1060" y="180" width="180" height="25" as="geometry" />
          
        </mxCell>
        
        <mxCell id="iu_38Fmg2Qh9nAeFJ_WT-9" value="" style="rounded=0;whiteSpace=wrap;html=1;fontSize=22;fillColor=#f5f5f5;strokeColor=#666666;fontColor=#333333;fontStyle=1" parent="iu_38Fmg2Qh9nAeFJ_WT-1" vertex="1">
          
          <mxGeometry x="1060" y="205" width="180" height="130" as="geometry" />
          
        </mxCell>
        
        <mxCell id="iu_38Fmg2Qh9nAeFJ_WT-10" value="Expiration Service" style="rounded=0;whiteSpace=wrap;html=1;fontSize=19;fillColor=#f5f5f5;strokeColor=#666666;fontColor=#333333;fontStyle=1" parent="iu_38Fmg2Qh9nAeFJ_WT-1" vertex="1">
          
          <mxGeometry x="660" y="390" width="180" height="25" as="geometry" />
          
        </mxCell>
        
        <mxCell id="iu_38Fmg2Qh9nAeFJ_WT-11" value="" style="rounded=0;whiteSpace=wrap;html=1;fontSize=22;fillColor=#f5f5f5;strokeColor=#666666;fontColor=#333333;fontStyle=1" parent="iu_38Fmg2Qh9nAeFJ_WT-1" vertex="1">
          
          <mxGeometry x="660" y="415" width="180" height="130" as="geometry" />
          
        </mxCell>
        
        <mxCell id="iu_38Fmg2Qh9nAeFJ_WT-12" value="Payments Service" style="rounded=0;whiteSpace=wrap;html=1;fontSize=19;fillColor=#f5f5f5;strokeColor=#666666;fontColor=#333333;fontStyle=1" parent="iu_38Fmg2Qh9nAeFJ_WT-1" vertex="1">
          
          <mxGeometry x="1060" y="390" width="180" height="25" as="geometry" />
          
        </mxCell>
        
        <mxCell id="iu_38Fmg2Qh9nAeFJ_WT-13" value="" style="rounded=0;whiteSpace=wrap;html=1;fontSize=22;fillColor=#f5f5f5;strokeColor=#666666;fontColor=#333333;fontStyle=1" parent="iu_38Fmg2Qh9nAeFJ_WT-1" vertex="1">
          
          <mxGeometry x="1060" y="415" width="180" height="130" as="geometry" />
          
        </mxCell>
        
        <mxCell id="iu_38Fmg2Qh9nAeFJ_WT-14" value="event" style="rounded=0;whiteSpace=wrap;html=1;fontSize=19;fillColor=#f8cecc;strokeColor=#b85450;" parent="iu_38Fmg2Qh9nAeFJ_WT-1" vertex="1">
          
          <mxGeometry x="890" y="350" width="90" height="30" as="geometry" />
          
        </mxCell>
        
        <mxCell id="iu_38Fmg2Qh9nAeFJ_WT-15" value="event" style="rounded=0;whiteSpace=wrap;html=1;fontSize=19;fillColor=#f8cecc;strokeColor=#b85450;" parent="iu_38Fmg2Qh9nAeFJ_WT-1" vertex="1">
          
          <mxGeometry x="1040" y="260" width="90" height="30" as="geometry" />
          
        </mxCell>
        
        <mxCell id="iu_38Fmg2Qh9nAeFJ_WT-16" value="event" style="rounded=0;whiteSpace=wrap;html=1;fontSize=19;fillColor=#f8cecc;strokeColor=#b85450;" parent="iu_38Fmg2Qh9nAeFJ_WT-1" vertex="1">
          
          <mxGeometry x="1050" y="460" width="90" height="30" as="geometry" />
          
        </mxCell>
        
        <mxCell id="iu_38Fmg2Qh9nAeFJ_WT-17" value="event" style="rounded=0;whiteSpace=wrap;html=1;fontSize=19;fillColor=#f8cecc;strokeColor=#b85450;" parent="iu_38Fmg2Qh9nAeFJ_WT-1" vertex="1">
          
          <mxGeometry x="830" y="380" width="90" height="30" as="geometry" />
          
        </mxCell>
        
        <mxCell id="iu_38Fmg2Qh9nAeFJ_WT-18" value="event" style="rounded=0;whiteSpace=wrap;html=1;fontSize=19;fillColor=#f8cecc;strokeColor=#b85450;" parent="iu_38Fmg2Qh9nAeFJ_WT-1" vertex="1">
          
          <mxGeometry x="870" y="430" width="90" height="30" as="geometry" />
          
        </mxCell>
        
        <mxCell id="iu_38Fmg2Qh9nAeFJ_WT-19" value="event" style="rounded=0;whiteSpace=wrap;html=1;fontSize=19;fillColor=#f8cecc;strokeColor=#b85450;" parent="iu_38Fmg2Qh9nAeFJ_WT-1" vertex="1">
          
          <mxGeometry x="1000" y="370" width="90" height="30" as="geometry" />
          
        </mxCell>
        
        <mxCell id="iu_38Fmg2Qh9nAeFJ_WT-20" value="event" style="rounded=0;whiteSpace=wrap;html=1;fontSize=19;fillColor=#f8cecc;strokeColor=#b85450;" parent="iu_38Fmg2Qh9nAeFJ_WT-1" vertex="1">
          
          <mxGeometry x="770" y="310" width="90" height="30" as="geometry" />
          
        </mxCell>
        
        <mxCell id="iu_38Fmg2Qh9nAeFJ_WT-21" value="event" style="rounded=0;whiteSpace=wrap;html=1;fontSize=19;fillColor=#f8cecc;strokeColor=#b85450;" parent="iu_38Fmg2Qh9nAeFJ_WT-1" vertex="1">
          
          <mxGeometry x="800" y="450" width="90" height="30" as="geometry" />
          
        </mxCell>
        
        <mxCell id="iu_38Fmg2Qh9nAeFJ_WT-22" value="event" style="rounded=0;whiteSpace=wrap;html=1;fontSize=19;fillColor=#f8cecc;strokeColor=#b85450;" parent="iu_38Fmg2Qh9nAeFJ_WT-1" vertex="1">
          
          <mxGeometry x="1020" y="230" width="90" height="30" as="geometry" />
          
        </mxCell>
        
      </root>
      
    </mxGraphModel>
    
  </diagram>
  <diagram name="07 - ev" id="K5YRci-xIZOiUO3dV2KH">
    
    <mxGraphModel dx="1502" dy="739" grid="1" gridSize="10" guides="1" tooltips="1" connect="1" arrows="1" fold="1" page="1" pageScale="1" pageWidth="1920" pageHeight="1200" math="0" shadow="0">
      
      <root>
        
        <mxCell id="OfeaXkl0bqsWNr0oBx3B-0" />
        
        <mxCell id="OfeaXkl0bqsWNr0oBx3B-1" parent="OfeaXkl0bqsWNr0oBx3B-0" />
        
        <mxCell id="OfeaXkl0bqsWNr0oBx3B-2" value="Tickets Service" style="rounded=0;whiteSpace=wrap;html=1;fontSize=19;fillColor=#f5f5f5;strokeColor=#666666;fontColor=#333333;fontStyle=1" parent="OfeaXkl0bqsWNr0oBx3B-1" vertex="1">
          
          <mxGeometry x="660" y="180" width="180" height="25" as="geometry" />
          
        </mxCell>
        
        <mxCell id="OfeaXkl0bqsWNr0oBx3B-3" value="" style="rounded=0;whiteSpace=wrap;html=1;fontSize=22;fillColor=#f5f5f5;strokeColor=#666666;fontColor=#333333;fontStyle=1" parent="OfeaXkl0bqsWNr0oBx3B-1" vertex="1">
          
          <mxGeometry x="660" y="205" width="180" height="130" as="geometry" />
          
        </mxCell>
        
        <mxCell id="OfeaXkl0bqsWNr0oBx3B-4" value="Orders Service" style="rounded=0;whiteSpace=wrap;html=1;fontSize=19;fillColor=#f5f5f5;strokeColor=#666666;fontColor=#333333;fontStyle=1" parent="OfeaXkl0bqsWNr0oBx3B-1" vertex="1">
          
          <mxGeometry x="910" y="180" width="180" height="25" as="geometry" />
          
        </mxCell>
        
        <mxCell id="OfeaXkl0bqsWNr0oBx3B-5" value="" style="rounded=0;whiteSpace=wrap;html=1;fontSize=22;fillColor=#f5f5f5;strokeColor=#666666;fontColor=#333333;fontStyle=1" parent="OfeaXkl0bqsWNr0oBx3B-1" vertex="1">
          
          <mxGeometry x="910" y="205" width="180" height="130" as="geometry" />
          
        </mxCell>
        
        <mxCell id="OfeaXkl0bqsWNr0oBx3B-6" value="Expiration Service" style="rounded=0;whiteSpace=wrap;html=1;fontSize=19;fillColor=#f5f5f5;strokeColor=#666666;fontColor=#333333;fontStyle=1" parent="OfeaXkl0bqsWNr0oBx3B-1" vertex="1">
          
          <mxGeometry x="660" y="360" width="180" height="25" as="geometry" />
          
        </mxCell>
        
        <mxCell id="OfeaXkl0bqsWNr0oBx3B-7" value="" style="rounded=0;whiteSpace=wrap;html=1;fontSize=22;fillColor=#f5f5f5;strokeColor=#666666;fontColor=#333333;fontStyle=1" parent="OfeaXkl0bqsWNr0oBx3B-1" vertex="1">
          
          <mxGeometry x="660" y="385" width="180" height="130" as="geometry" />
          
        </mxCell>
        
        <mxCell id="OfeaXkl0bqsWNr0oBx3B-8" value="Payments Service" style="rounded=0;whiteSpace=wrap;html=1;fontSize=19;fillColor=#f5f5f5;strokeColor=#666666;fontColor=#333333;fontStyle=1" parent="OfeaXkl0bqsWNr0oBx3B-1" vertex="1">
          
          <mxGeometry x="910" y="360" width="180" height="25" as="geometry" />
          
        </mxCell>
        
        <mxCell id="OfeaXkl0bqsWNr0oBx3B-9" value="" style="rounded=0;whiteSpace=wrap;html=1;fontSize=22;fillColor=#f5f5f5;strokeColor=#666666;fontColor=#333333;fontStyle=1" parent="OfeaXkl0bqsWNr0oBx3B-1" vertex="1">
          
          <mxGeometry x="910" y="385" width="180" height="130" as="geometry" />
          
        </mxCell>
        
        <mxCell id="OfeaXkl0bqsWNr0oBx3B-19" value="Data Held + Replicated by Each Service" style="text;html=1;strokeColor=none;fillColor=none;align=center;verticalAlign=middle;whiteSpace=wrap;rounded=0;fontSize=19;fontStyle=1" parent="OfeaXkl0bqsWNr0oBx3B-1" vertex="1">
          
          <mxGeometry x="654" y="148" width="450" height="20" as="geometry" />
          
        </mxCell>
        
        <mxCell id="OfeaXkl0bqsWNr0oBx3B-20" value="tickets" style="rounded=0;whiteSpace=wrap;html=1;fontSize=19;fillColor=#d5e8d4;strokeColor=#82b366;" parent="OfeaXkl0bqsWNr0oBx3B-1" vertex="1">
          
          <mxGeometry x="690" y="220" width="120" height="40" as="geometry" />
          
        </mxCell>
        
        <mxCell id="OfeaXkl0bqsWNr0oBx3B-21" value="orders" style="rounded=0;whiteSpace=wrap;html=1;fontSize=19;fillColor=#d5e8d4;strokeColor=#82b366;" parent="OfeaXkl0bqsWNr0oBx3B-1" vertex="1">
          
          <mxGeometry x="940" y="220" width="120" height="40" as="geometry" />
          
        </mxCell>
        
        <mxCell id="OfeaXkl0bqsWNr0oBx3B-22" value="tickets" style="rounded=0;whiteSpace=wrap;html=1;fontSize=19;fillColor=#e1d5e7;strokeColor=#9673a6;" parent="OfeaXkl0bqsWNr0oBx3B-1" vertex="1">
          
          <mxGeometry x="940" y="270" width="120" height="40" as="geometry" />
          
        </mxCell>
        
        <mxCell id="OfeaXkl0bqsWNr0oBx3B-23" value="charges" style="rounded=0;whiteSpace=wrap;html=1;fontSize=19;fillColor=#d5e8d4;strokeColor=#82b366;" parent="OfeaXkl0bqsWNr0oBx3B-1" vertex="1">
          
          <mxGeometry x="940" y="400" width="120" height="40" as="geometry" />
          
        </mxCell>
        
        <mxCell id="OfeaXkl0bqsWNr0oBx3B-24" value="orders" style="rounded=0;whiteSpace=wrap;html=1;fontSize=19;fillColor=#e1d5e7;strokeColor=#9673a6;" parent="OfeaXkl0bqsWNr0oBx3B-1" vertex="1">
          
          <mxGeometry x="940" y="450" width="120" height="40" as="geometry" />
          
        </mxCell>
        
      </root>
      
    </mxGraphModel>
    
  </diagram>
  <diagram id="X_EYdd4N91h8KVWDsqU0" name="10 - events">
    
    <mxGraphModel dx="1502" dy="739" grid="1" gridSize="10" guides="1" tooltips="1" connect="1" arrows="1" fold="1" page="1" pageScale="1" pageWidth="1920" pageHeight="1200" math="0" shadow="0">
      
      <root>
        
        <mxCell id="NcEHQFSOCh8VTHsfT-eI-0" />
        
        <mxCell id="NcEHQFSOCh8VTHsfT-eI-1" parent="NcEHQFSOCh8VTHsfT-eI-0" />
        
        <mxCell id="3QjkVWb_gsZws8StJqki-11" style="edgeStyle=orthogonalEdgeStyle;rounded=0;orthogonalLoop=1;jettySize=auto;html=1;exitX=0.5;exitY=1;exitDx=0;exitDy=0;fontSize=17;" parent="NcEHQFSOCh8VTHsfT-eI-1" source="3QjkVWb_gsZws8StJqki-0" target="3QjkVWb_gsZws8StJqki-4" edge="1">
          
          <mxGeometry relative="1" as="geometry" />
          
        </mxCell>
        
        <mxCell id="3QjkVWb_gsZws8StJqki-0" value="Name of resource" style="rounded=0;whiteSpace=wrap;html=1;fontSize=17;fillColor=#dae8fc;strokeColor=#6c8ebf;fontStyle=1" parent="NcEHQFSOCh8VTHsfT-eI-1" vertex="1">
          
          <mxGeometry x="580" y="320" width="160" height="60" as="geometry" />
          
        </mxCell>
        
        <mxCell id="3QjkVWb_gsZws8StJqki-1" value="Subject Names Format" style="text;html=1;strokeColor=none;fillColor=none;align=center;verticalAlign=middle;whiteSpace=wrap;rounded=0;fontSize=23;fontStyle=1" parent="NcEHQFSOCh8VTHsfT-eI-1" vertex="1">
          
          <mxGeometry x="630" y="290" width="300" height="20" as="geometry" />
          
        </mxCell>
        
        <mxCell id="3QjkVWb_gsZws8StJqki-2" value=":" style="rounded=0;whiteSpace=wrap;html=1;fontSize=24;fillColor=#f5f5f5;strokeColor=#666666;fontColor=#333333;fontStyle=1" parent="NcEHQFSOCh8VTHsfT-eI-1" vertex="1">
          
          <mxGeometry x="740" y="320" width="40" height="60" as="geometry" />
          
        </mxCell>
        
        <mxCell id="3QjkVWb_gsZws8StJqki-12" style="edgeStyle=orthogonalEdgeStyle;rounded=0;orthogonalLoop=1;jettySize=auto;html=1;exitX=0.5;exitY=1;exitDx=0;exitDy=0;fontSize=17;" parent="NcEHQFSOCh8VTHsfT-eI-1" source="3QjkVWb_gsZws8StJqki-3" target="3QjkVWb_gsZws8StJqki-6" edge="1">
          
          <mxGeometry relative="1" as="geometry" />
          
        </mxCell>
        
        <mxCell id="3QjkVWb_gsZws8StJqki-3" value="Thing that happened to it" style="rounded=0;whiteSpace=wrap;html=1;fontSize=16;fillColor=#dae8fc;strokeColor=#6c8ebf;fontStyle=1" parent="NcEHQFSOCh8VTHsfT-eI-1" vertex="1">
          
          <mxGeometry x="780" y="320" width="200" height="60" as="geometry" />
          
        </mxCell>
        
        <mxCell id="3QjkVWb_gsZws8StJqki-4" value="ticket" style="rounded=0;whiteSpace=wrap;html=1;fontSize=17;fillColor=#f5f5f5;strokeColor=#666666;fontStyle=0;fontColor=#333333;" parent="NcEHQFSOCh8VTHsfT-eI-1" vertex="1">
          
          <mxGeometry x="580" y="400" width="160" height="40" as="geometry" />
          
        </mxCell>
        
        <mxCell id="3QjkVWb_gsZws8StJqki-5" value=":" style="rounded=0;whiteSpace=wrap;html=1;fontSize=17;fillColor=#f5f5f5;strokeColor=#666666;fontStyle=0;fontColor=#333333;" parent="NcEHQFSOCh8VTHsfT-eI-1" vertex="1">
          
          <mxGeometry x="740" y="400" width="40" height="40" as="geometry" />
          
        </mxCell>
        
        <mxCell id="3QjkVWb_gsZws8StJqki-6" value="created" style="rounded=0;whiteSpace=wrap;html=1;fontSize=17;fillColor=#f5f5f5;strokeColor=#666666;fontStyle=0;fontColor=#333333;" parent="NcEHQFSOCh8VTHsfT-eI-1" vertex="1">
          
          <mxGeometry x="780" y="400" width="200" height="40" as="geometry" />
          
        </mxCell>
        
        <mxCell id="3QjkVWb_gsZws8StJqki-7" value="ticket" style="rounded=0;whiteSpace=wrap;html=1;fontSize=17;fillColor=#f5f5f5;strokeColor=#666666;fontStyle=0;fontColor=#333333;" parent="NcEHQFSOCh8VTHsfT-eI-1" vertex="1">
          
          <mxGeometry x="580" y="450" width="160" height="40" as="geometry" />
          
        </mxCell>
        
        <mxCell id="3QjkVWb_gsZws8StJqki-8" value=":" style="rounded=0;whiteSpace=wrap;html=1;fontSize=17;fillColor=#f5f5f5;strokeColor=#666666;fontStyle=0;fontColor=#333333;" parent="NcEHQFSOCh8VTHsfT-eI-1" vertex="1">
          
          <mxGeometry x="740" y="450" width="40" height="40" as="geometry" />
          
        </mxCell>
        
        <mxCell id="3QjkVWb_gsZws8StJqki-9" value="updated" style="rounded=0;whiteSpace=wrap;html=1;fontSize=17;fillColor=#f5f5f5;strokeColor=#666666;fontStyle=0;fontColor=#333333;" parent="NcEHQFSOCh8VTHsfT-eI-1" vertex="1">
          
          <mxGeometry x="780" y="450" width="200" height="40" as="geometry" />
          
        </mxCell>
        
        <mxCell id="3QjkVWb_gsZws8StJqki-13" value="order" style="rounded=0;whiteSpace=wrap;html=1;fontSize=17;fillColor=#f5f5f5;strokeColor=#666666;fontStyle=0;fontColor=#333333;" parent="NcEHQFSOCh8VTHsfT-eI-1" vertex="1">
          
          <mxGeometry x="580" y="500" width="160" height="40" as="geometry" />
          
        </mxCell>
        
        <mxCell id="3QjkVWb_gsZws8StJqki-14" value=":" style="rounded=0;whiteSpace=wrap;html=1;fontSize=17;fillColor=#f5f5f5;strokeColor=#666666;fontStyle=0;fontColor=#333333;" parent="NcEHQFSOCh8VTHsfT-eI-1" vertex="1">
          
          <mxGeometry x="740" y="500" width="40" height="40" as="geometry" />
          
        </mxCell>
        
        <mxCell id="3QjkVWb_gsZws8StJqki-15" value="created" style="rounded=0;whiteSpace=wrap;html=1;fontSize=17;fillColor=#f5f5f5;strokeColor=#666666;fontStyle=0;fontColor=#333333;" parent="NcEHQFSOCh8VTHsfT-eI-1" vertex="1">
          
          <mxGeometry x="780" y="500" width="200" height="40" as="geometry" />
          
        </mxCell>
        
        <mxCell id="3QjkVWb_gsZws8StJqki-16" value="expiration" style="rounded=0;whiteSpace=wrap;html=1;fontSize=17;fillColor=#f5f5f5;strokeColor=#666666;fontStyle=0;fontColor=#333333;" parent="NcEHQFSOCh8VTHsfT-eI-1" vertex="1">
          
          <mxGeometry x="580" y="550" width="160" height="40" as="geometry" />
          
        </mxCell>
        
        <mxCell id="3QjkVWb_gsZws8StJqki-17" value=":" style="rounded=0;whiteSpace=wrap;html=1;fontSize=17;fillColor=#f5f5f5;strokeColor=#666666;fontStyle=0;fontColor=#333333;" parent="NcEHQFSOCh8VTHsfT-eI-1" vertex="1">
          
          <mxGeometry x="740" y="550" width="40" height="40" as="geometry" />
          
        </mxCell>
        
        <mxCell id="3QjkVWb_gsZws8StJqki-18" value="complete" style="rounded=0;whiteSpace=wrap;html=1;fontSize=17;fillColor=#f5f5f5;strokeColor=#666666;fontStyle=0;fontColor=#333333;" parent="NcEHQFSOCh8VTHsfT-eI-1" vertex="1">
          
          <mxGeometry x="780" y="550" width="200" height="40" as="geometry" />
          
        </mxCell>
        
      </root>
      
    </mxGraphModel>
    
  </diagram>
  <diagram name="08 - repl" id="zYUUzeGqlkG73wgRDwmI">
    
    <mxGraphModel dx="1502" dy="739" grid="1" gridSize="10" guides="1" tooltips="1" connect="1" arrows="1" fold="1" page="1" pageScale="1" pageWidth="1920" pageHeight="1200" math="0" shadow="0">
      
      <root>
        
        <mxCell id="J5iIMLLHCKk9mcbeVHAl-0" />
        
        <mxCell id="J5iIMLLHCKk9mcbeVHAl-1" parent="J5iIMLLHCKk9mcbeVHAl-0" />
        
        <mxCell id="J5iIMLLHCKk9mcbeVHAl-2" value="Tickets Service" style="rounded=0;whiteSpace=wrap;html=1;fontSize=19;fillColor=#f5f5f5;strokeColor=#666666;fontColor=#333333;fontStyle=1" parent="J5iIMLLHCKk9mcbeVHAl-1" vertex="1">
          
          <mxGeometry x="700" y="180" width="180" height="25" as="geometry" />
          
        </mxCell>
        
        <mxCell id="J5iIMLLHCKk9mcbeVHAl-18" style="edgeStyle=orthogonalEdgeStyle;rounded=0;orthogonalLoop=1;jettySize=auto;html=1;exitX=0.5;exitY=1;exitDx=0;exitDy=0;fontSize=19;" parent="J5iIMLLHCKk9mcbeVHAl-1" source="J5iIMLLHCKk9mcbeVHAl-3" target="J5iIMLLHCKk9mcbeVHAl-17" edge="1">
          
          <mxGeometry relative="1" as="geometry" />
          
        </mxCell>
        
        <mxCell id="J5iIMLLHCKk9mcbeVHAl-3" value="" style="rounded=0;whiteSpace=wrap;html=1;fontSize=22;fillColor=#f5f5f5;strokeColor=#666666;fontColor=#333333;fontStyle=1" parent="J5iIMLLHCKk9mcbeVHAl-1" vertex="1">
          
          <mxGeometry x="700" y="205" width="180" height="130" as="geometry" />
          
        </mxCell>
        
        <mxCell id="J5iIMLLHCKk9mcbeVHAl-4" value="Orders Service" style="rounded=0;whiteSpace=wrap;html=1;fontSize=19;fillColor=#f5f5f5;strokeColor=#666666;fontColor=#333333;fontStyle=1" parent="J5iIMLLHCKk9mcbeVHAl-1" vertex="1">
          
          <mxGeometry x="910" y="180" width="180" height="25" as="geometry" />
          
        </mxCell>
        
        <mxCell id="J5iIMLLHCKk9mcbeVHAl-22" style="edgeStyle=orthogonalEdgeStyle;rounded=0;orthogonalLoop=1;jettySize=auto;html=1;exitX=0.5;exitY=1;exitDx=0;exitDy=0;fontSize=17;" parent="J5iIMLLHCKk9mcbeVHAl-1" source="J5iIMLLHCKk9mcbeVHAl-5" target="J5iIMLLHCKk9mcbeVHAl-20" edge="1">
          
          <mxGeometry relative="1" as="geometry" />
          
        </mxCell>
        
        <mxCell id="J5iIMLLHCKk9mcbeVHAl-5" value="" style="rounded=0;whiteSpace=wrap;html=1;fontSize=22;fillColor=#f5f5f5;strokeColor=#666666;fontColor=#333333;fontStyle=1" parent="J5iIMLLHCKk9mcbeVHAl-1" vertex="1">
          
          <mxGeometry x="910" y="205" width="180" height="130" as="geometry" />
          
        </mxCell>
        
        <mxCell id="J5iIMLLHCKk9mcbeVHAl-6" value="Expiration Service" style="rounded=0;whiteSpace=wrap;html=1;fontSize=19;fillColor=#f5f5f5;strokeColor=#666666;fontColor=#333333;fontStyle=1" parent="J5iIMLLHCKk9mcbeVHAl-1" vertex="1">
          
          <mxGeometry x="1340" y="180" width="180" height="25" as="geometry" />
          
        </mxCell>
        
        <mxCell id="ls_sOQ1b9De27clUCzt7-1" style="edgeStyle=orthogonalEdgeStyle;rounded=0;orthogonalLoop=1;jettySize=auto;html=1;exitX=0.5;exitY=1;exitDx=0;exitDy=0;entryX=0.5;entryY=0;entryDx=0;entryDy=0;fontSize=14;" parent="J5iIMLLHCKk9mcbeVHAl-1" source="J5iIMLLHCKk9mcbeVHAl-7" target="ls_sOQ1b9De27clUCzt7-0" edge="1">
          
          <mxGeometry relative="1" as="geometry" />
          
        </mxCell>
        
        <mxCell id="J5iIMLLHCKk9mcbeVHAl-7" value="" style="rounded=0;whiteSpace=wrap;html=1;fontSize=22;fillColor=#f5f5f5;strokeColor=#666666;fontColor=#333333;fontStyle=1" parent="J5iIMLLHCKk9mcbeVHAl-1" vertex="1">
          
          <mxGeometry x="1340" y="205" width="180" height="130" as="geometry" />
          
        </mxCell>
        
        <mxCell id="J5iIMLLHCKk9mcbeVHAl-8" value="Payments Service" style="rounded=0;whiteSpace=wrap;html=1;fontSize=19;fillColor=#f5f5f5;strokeColor=#666666;fontColor=#333333;fontStyle=1" parent="J5iIMLLHCKk9mcbeVHAl-1" vertex="1">
          
          <mxGeometry x="1130" y="180" width="180" height="25" as="geometry" />
          
        </mxCell>
        
        <mxCell id="J5iIMLLHCKk9mcbeVHAl-24" style="edgeStyle=orthogonalEdgeStyle;rounded=0;orthogonalLoop=1;jettySize=auto;html=1;exitX=0.5;exitY=1;exitDx=0;exitDy=0;entryX=0.5;entryY=0;entryDx=0;entryDy=0;fontSize=17;" parent="J5iIMLLHCKk9mcbeVHAl-1" source="J5iIMLLHCKk9mcbeVHAl-9" target="J5iIMLLHCKk9mcbeVHAl-23" edge="1">
          
          <mxGeometry relative="1" as="geometry" />
          
        </mxCell>
        
        <mxCell id="J5iIMLLHCKk9mcbeVHAl-9" value="" style="rounded=0;whiteSpace=wrap;html=1;fontSize=22;fillColor=#f5f5f5;strokeColor=#666666;fontColor=#333333;fontStyle=1" parent="J5iIMLLHCKk9mcbeVHAl-1" vertex="1">
          
          <mxGeometry x="1130" y="205" width="180" height="130" as="geometry" />
          
        </mxCell>
        
        <mxCell id="J5iIMLLHCKk9mcbeVHAl-11" value="tickets" style="rounded=0;whiteSpace=wrap;html=1;fontSize=19;fillColor=#d5e8d4;strokeColor=#82b366;" parent="J5iIMLLHCKk9mcbeVHAl-1" vertex="1">
          
          <mxGeometry x="730" y="220" width="120" height="40" as="geometry" />
          
        </mxCell>
        
        <mxCell id="J5iIMLLHCKk9mcbeVHAl-12" value="orders" style="rounded=0;whiteSpace=wrap;html=1;fontSize=19;fillColor=#d5e8d4;strokeColor=#82b366;" parent="J5iIMLLHCKk9mcbeVHAl-1" vertex="1">
          
          <mxGeometry x="940" y="220" width="120" height="40" as="geometry" />
          
        </mxCell>
        
        <mxCell id="J5iIMLLHCKk9mcbeVHAl-13" value="tickets" style="rounded=0;whiteSpace=wrap;html=1;fontSize=19;fillColor=#e1d5e7;strokeColor=#9673a6;" parent="J5iIMLLHCKk9mcbeVHAl-1" vertex="1">
          
          <mxGeometry x="940" y="270" width="120" height="40" as="geometry" />
          
        </mxCell>
        
        <mxCell id="J5iIMLLHCKk9mcbeVHAl-14" value="charges" style="rounded=0;whiteSpace=wrap;html=1;fontSize=19;fillColor=#d5e8d4;strokeColor=#82b366;" parent="J5iIMLLHCKk9mcbeVHAl-1" vertex="1">
          
          <mxGeometry x="1160" y="220" width="120" height="40" as="geometry" />
          
        </mxCell>
        
        <mxCell id="J5iIMLLHCKk9mcbeVHAl-15" value="orders" style="rounded=0;whiteSpace=wrap;html=1;fontSize=19;fillColor=#e1d5e7;strokeColor=#9673a6;" parent="J5iIMLLHCKk9mcbeVHAl-1" vertex="1">
          
          <mxGeometry x="1160" y="270" width="120" height="40" as="geometry" />
          
        </mxCell>
        
        <mxCell id="J5iIMLLHCKk9mcbeVHAl-17" value="ticket:created" style="rounded=0;whiteSpace=wrap;html=1;fontSize=17;fillColor=#f8cecc;strokeColor=#b85450;" parent="J5iIMLLHCKk9mcbeVHAl-1" vertex="1">
          
          <mxGeometry x="715" y="360" width="150" height="40" as="geometry" />
          
        </mxCell>
        
        <mxCell id="J5iIMLLHCKk9mcbeVHAl-19" value="ticket:updated" style="rounded=0;whiteSpace=wrap;html=1;fontSize=17;fillColor=#f8cecc;strokeColor=#b85450;" parent="J5iIMLLHCKk9mcbeVHAl-1" vertex="1">
          
          <mxGeometry x="715" y="410" width="150" height="40" as="geometry" />
          
        </mxCell>
        
        <mxCell id="J5iIMLLHCKk9mcbeVHAl-20" value="order:created" style="rounded=0;whiteSpace=wrap;html=1;fontSize=17;fillColor=#f8cecc;strokeColor=#b85450;" parent="J5iIMLLHCKk9mcbeVHAl-1" vertex="1">
          
          <mxGeometry x="925" y="360" width="150" height="40" as="geometry" />
          
        </mxCell>
        
        <mxCell id="J5iIMLLHCKk9mcbeVHAl-21" value="order:cancelled" style="rounded=0;whiteSpace=wrap;html=1;fontSize=17;fillColor=#f8cecc;strokeColor=#b85450;" parent="J5iIMLLHCKk9mcbeVHAl-1" vertex="1">
          
          <mxGeometry x="925" y="410" width="150" height="40" as="geometry" />
          
        </mxCell>
        
        <mxCell id="J5iIMLLHCKk9mcbeVHAl-23" value="charge:created" style="rounded=0;whiteSpace=wrap;html=1;fontSize=17;fillColor=#f8cecc;strokeColor=#b85450;" parent="J5iIMLLHCKk9mcbeVHAl-1" vertex="1">
          
          <mxGeometry x="1145" y="360" width="150" height="40" as="geometry" />
          
        </mxCell>
        
        <mxCell id="J5iIMLLHCKk9mcbeVHAl-25" value="Events Published by Each Service" style="text;html=1;strokeColor=none;fillColor=none;align=center;verticalAlign=middle;whiteSpace=wrap;rounded=0;fontSize=20;fontStyle=1" parent="J5iIMLLHCKk9mcbeVHAl-1" vertex="1">
          
          <mxGeometry x="925" y="140" width="360" height="20" as="geometry" />
          
        </mxCell>
        
        <mxCell id="ls_sOQ1b9De27clUCzt7-0" value="expiration:complete" style="rounded=0;whiteSpace=wrap;html=1;fontSize=15;fillColor=#f8cecc;strokeColor=#b85450;" parent="J5iIMLLHCKk9mcbeVHAl-1" vertex="1">
          
          <mxGeometry x="1355" y="360" width="150" height="40" as="geometry" />
          
        </mxCell>
        
      </root>
      
    </mxGraphModel>
    
  </diagram>
  <diagram name="ticket:created" id="wyz9dUnX1pMat82Xb2a4">
    <mxGraphModel dx="834" dy="411" grid="1" gridSize="10" guides="1" tooltips="1" connect="1" arrows="1" fold="1" page="1" pageScale="1" pageWidth="1920" pageHeight="1200" math="0" shadow="0">
      <root>
        <mxCell id="JV3dai9hfGRf0m7YUMMa-0" />
        <mxCell id="JV3dai9hfGRf0m7YUMMa-1" parent="JV3dai9hfGRf0m7YUMMa-0" />
        <mxCell id="JV3dai9hfGRf0m7YUMMa-2" value="Tickets Service" style="rounded=0;whiteSpace=wrap;html=1;fontSize=19;fillColor=#f5f5f5;strokeColor=#666666;fontColor=#333333;fontStyle=1" parent="JV3dai9hfGRf0m7YUMMa-1" vertex="1">
          <mxGeometry x="700" y="180" width="180" height="25" as="geometry" />
        </mxCell>
        <mxCell id="JV3dai9hfGRf0m7YUMMa-3" style="edgeStyle=orthogonalEdgeStyle;rounded=0;orthogonalLoop=1;jettySize=auto;html=1;exitX=0.5;exitY=1;exitDx=0;exitDy=0;fontSize=19;" parent="JV3dai9hfGRf0m7YUMMa-1" source="JV3dai9hfGRf0m7YUMMa-4" target="JV3dai9hfGRf0m7YUMMa-19" edge="1">
          <mxGeometry relative="1" as="geometry" />
        </mxCell>
        <mxCell id="JV3dai9hfGRf0m7YUMMa-4" value="" style="rounded=0;whiteSpace=wrap;html=1;fontSize=22;fillColor=#f5f5f5;strokeColor=#666666;fontColor=#333333;fontStyle=1" parent="JV3dai9hfGRf0m7YUMMa-1" vertex="1">
          <mxGeometry x="700" y="205" width="180" height="130" as="geometry" />
        </mxCell>
        <mxCell id="JV3dai9hfGRf0m7YUMMa-5" value="Orders Service" style="rounded=0;whiteSpace=wrap;html=1;fontSize=19;fillColor=#f5f5f5;strokeColor=#666666;fontColor=#333333;fontStyle=1" parent="JV3dai9hfGRf0m7YUMMa-1" vertex="1">
          <mxGeometry x="910" y="180" width="180" height="25" as="geometry" />
        </mxCell>
        <mxCell id="JV3dai9hfGRf0m7YUMMa-7" value="" style="rounded=0;whiteSpace=wrap;html=1;fontSize=22;fillColor=#f5f5f5;strokeColor=#666666;fontColor=#333333;fontStyle=1" parent="JV3dai9hfGRf0m7YUMMa-1" vertex="1">
          <mxGeometry x="910" y="205" width="180" height="130" as="geometry" />
        </mxCell>
        <mxCell id="JV3dai9hfGRf0m7YUMMa-8" value="Expiration Service" style="rounded=0;whiteSpace=wrap;html=1;fontSize=19;fillColor=#f5f5f5;strokeColor=#666666;fontColor=#333333;fontStyle=1" parent="JV3dai9hfGRf0m7YUMMa-1" vertex="1">
          <mxGeometry x="1340" y="180" width="180" height="25" as="geometry" />
        </mxCell>
        <mxCell id="JV3dai9hfGRf0m7YUMMa-10" value="" style="rounded=0;whiteSpace=wrap;html=1;fontSize=22;fillColor=#f5f5f5;strokeColor=#666666;fontColor=#333333;fontStyle=1" parent="JV3dai9hfGRf0m7YUMMa-1" vertex="1">
          <mxGeometry x="1340" y="205" width="180" height="130" as="geometry" />
        </mxCell>
        <mxCell id="JV3dai9hfGRf0m7YUMMa-11" value="Payments Service" style="rounded=0;whiteSpace=wrap;html=1;fontSize=19;fillColor=#f5f5f5;strokeColor=#666666;fontColor=#333333;fontStyle=1" parent="JV3dai9hfGRf0m7YUMMa-1" vertex="1">
          <mxGeometry x="1130" y="180" width="180" height="25" as="geometry" />
        </mxCell>
        <mxCell id="JV3dai9hfGRf0m7YUMMa-13" value="" style="rounded=0;whiteSpace=wrap;html=1;fontSize=22;fillColor=#f5f5f5;strokeColor=#666666;fontColor=#333333;fontStyle=1" parent="JV3dai9hfGRf0m7YUMMa-1" vertex="1">
          <mxGeometry x="1130" y="205" width="180" height="130" as="geometry" />
        </mxCell>
        <mxCell id="JV3dai9hfGRf0m7YUMMa-14" value="tickets" style="rounded=0;whiteSpace=wrap;html=1;fontSize=19;fillColor=#d5e8d4;strokeColor=#82b366;" parent="JV3dai9hfGRf0m7YUMMa-1" vertex="1">
          <mxGeometry x="730" y="220" width="120" height="40" as="geometry" />
        </mxCell>
        <mxCell id="JV3dai9hfGRf0m7YUMMa-15" value="orders" style="rounded=0;whiteSpace=wrap;html=1;fontSize=19;fillColor=#d5e8d4;strokeColor=#82b366;" parent="JV3dai9hfGRf0m7YUMMa-1" vertex="1">
          <mxGeometry x="940" y="220" width="120" height="40" as="geometry" />
        </mxCell>
        <mxCell id="JV3dai9hfGRf0m7YUMMa-16" value="tickets" style="rounded=0;whiteSpace=wrap;html=1;fontSize=19;fillColor=#e1d5e7;strokeColor=#9673a6;" parent="JV3dai9hfGRf0m7YUMMa-1" vertex="1">
          <mxGeometry x="940" y="270" width="120" height="40" as="geometry" />
        </mxCell>
        <mxCell id="JV3dai9hfGRf0m7YUMMa-17" value="charges" style="rounded=0;whiteSpace=wrap;html=1;fontSize=19;fillColor=#d5e8d4;strokeColor=#82b366;" parent="JV3dai9hfGRf0m7YUMMa-1" vertex="1">
          <mxGeometry x="1160" y="220" width="120" height="40" as="geometry" />
        </mxCell>
        <mxCell id="JV3dai9hfGRf0m7YUMMa-18" value="orders" style="rounded=0;whiteSpace=wrap;html=1;fontSize=19;fillColor=#e1d5e7;strokeColor=#9673a6;" parent="JV3dai9hfGRf0m7YUMMa-1" vertex="1">
          <mxGeometry x="1160" y="270" width="120" height="40" as="geometry" />
        </mxCell>
        <mxCell id="JV3dai9hfGRf0m7YUMMa-26" style="edgeStyle=orthogonalEdgeStyle;rounded=0;orthogonalLoop=1;jettySize=auto;html=1;exitX=1;exitY=0.5;exitDx=0;exitDy=0;fontSize=23;" parent="JV3dai9hfGRf0m7YUMMa-1" source="JV3dai9hfGRf0m7YUMMa-19" target="JV3dai9hfGRf0m7YUMMa-7" edge="1">
          <mxGeometry relative="1" as="geometry" />
        </mxCell>
        <mxCell id="JV3dai9hfGRf0m7YUMMa-19" value="ticket:created" style="rounded=0;whiteSpace=wrap;html=1;fontSize=17;fillColor=#f8cecc;strokeColor=#b85450;" parent="JV3dai9hfGRf0m7YUMMa-1" vertex="1">
          <mxGeometry x="715" y="360" width="150" height="40" as="geometry" />
        </mxCell>
        <mxCell id="JV3dai9hfGRf0m7YUMMa-24" value="Events Published by Each Service" style="text;html=1;strokeColor=none;fillColor=none;align=center;verticalAlign=middle;whiteSpace=wrap;rounded=0;fontSize=20;fontStyle=1" parent="JV3dai9hfGRf0m7YUMMa-1" vertex="1">
          <mxGeometry x="925" y="140" width="360" height="20" as="geometry" />
        </mxCell>
        <mxCell id="JV3dai9hfGRf0m7YUMMa-28" value="Orders needs to know the valid tickets that can be purchased" style="rounded=0;whiteSpace=wrap;html=1;fontSize=14;" parent="JV3dai9hfGRf0m7YUMMa-1" vertex="1">
          <mxGeometry x="910" y="380" width="280" height="40" as="geometry" />
        </mxCell>
        <mxCell id="JV3dai9hfGRf0m7YUMMa-29" value="Orders needs to know the price of each ticket" style="rounded=0;whiteSpace=wrap;html=1;fontSize=14;" parent="JV3dai9hfGRf0m7YUMMa-1" vertex="1">
          <mxGeometry x="910" y="420" width="280" height="40" as="geometry" />
        </mxCell>
      </root>
    </mxGraphModel>
  </diagram>
  <diagram name="ticket:updated" id="0vyOk3rLx0NceL3abarB">
    <mxGraphModel dx="834" dy="411" grid="1" gridSize="10" guides="1" tooltips="1" connect="1" arrows="1" fold="1" page="1" pageScale="1" pageWidth="1920" pageHeight="1200" math="0" shadow="0">
      <root>
        <mxCell id="nBsVzfsCoDJfUNaghlDf-0" />
        <mxCell id="nBsVzfsCoDJfUNaghlDf-1" parent="nBsVzfsCoDJfUNaghlDf-0" />
        <mxCell id="nBsVzfsCoDJfUNaghlDf-2" value="Tickets Service" style="rounded=0;whiteSpace=wrap;html=1;fontSize=19;fillColor=#f5f5f5;strokeColor=#666666;fontColor=#333333;fontStyle=1" parent="nBsVzfsCoDJfUNaghlDf-1" vertex="1">
          <mxGeometry x="700" y="180" width="180" height="25" as="geometry" />
        </mxCell>
        <mxCell id="nBsVzfsCoDJfUNaghlDf-3" style="edgeStyle=orthogonalEdgeStyle;rounded=0;orthogonalLoop=1;jettySize=auto;html=1;exitX=0.5;exitY=1;exitDx=0;exitDy=0;fontSize=19;" parent="nBsVzfsCoDJfUNaghlDf-1" source="nBsVzfsCoDJfUNaghlDf-4" target="nBsVzfsCoDJfUNaghlDf-17" edge="1">
          <mxGeometry relative="1" as="geometry" />
        </mxCell>
        <mxCell id="nBsVzfsCoDJfUNaghlDf-4" value="" style="rounded=0;whiteSpace=wrap;html=1;fontSize=22;fillColor=#f5f5f5;strokeColor=#666666;fontColor=#333333;fontStyle=1" parent="nBsVzfsCoDJfUNaghlDf-1" vertex="1">
          <mxGeometry x="700" y="205" width="180" height="130" as="geometry" />
        </mxCell>
        <mxCell id="nBsVzfsCoDJfUNaghlDf-5" value="Orders Service" style="rounded=0;whiteSpace=wrap;html=1;fontSize=19;fillColor=#f5f5f5;strokeColor=#666666;fontColor=#333333;fontStyle=1" parent="nBsVzfsCoDJfUNaghlDf-1" vertex="1">
          <mxGeometry x="910" y="180" width="180" height="25" as="geometry" />
        </mxCell>
        <mxCell id="nBsVzfsCoDJfUNaghlDf-6" value="" style="rounded=0;whiteSpace=wrap;html=1;fontSize=22;fillColor=#f5f5f5;strokeColor=#666666;fontColor=#333333;fontStyle=1" parent="nBsVzfsCoDJfUNaghlDf-1" vertex="1">
          <mxGeometry x="910" y="205" width="180" height="130" as="geometry" />
        </mxCell>
        <mxCell id="nBsVzfsCoDJfUNaghlDf-7" value="Expiration Service" style="rounded=0;whiteSpace=wrap;html=1;fontSize=19;fillColor=#f5f5f5;strokeColor=#666666;fontColor=#333333;fontStyle=1" parent="nBsVzfsCoDJfUNaghlDf-1" vertex="1">
          <mxGeometry x="1340" y="180" width="180" height="25" as="geometry" />
        </mxCell>
        <mxCell id="nBsVzfsCoDJfUNaghlDf-8" value="" style="rounded=0;whiteSpace=wrap;html=1;fontSize=22;fillColor=#f5f5f5;strokeColor=#666666;fontColor=#333333;fontStyle=1" parent="nBsVzfsCoDJfUNaghlDf-1" vertex="1">
          <mxGeometry x="1340" y="205" width="180" height="130" as="geometry" />
        </mxCell>
        <mxCell id="nBsVzfsCoDJfUNaghlDf-9" value="Payments Service" style="rounded=0;whiteSpace=wrap;html=1;fontSize=19;fillColor=#f5f5f5;strokeColor=#666666;fontColor=#333333;fontStyle=1" parent="nBsVzfsCoDJfUNaghlDf-1" vertex="1">
          <mxGeometry x="1130" y="180" width="180" height="25" as="geometry" />
        </mxCell>
        <mxCell id="nBsVzfsCoDJfUNaghlDf-10" value="" style="rounded=0;whiteSpace=wrap;html=1;fontSize=22;fillColor=#f5f5f5;strokeColor=#666666;fontColor=#333333;fontStyle=1" parent="nBsVzfsCoDJfUNaghlDf-1" vertex="1">
          <mxGeometry x="1130" y="205" width="180" height="130" as="geometry" />
        </mxCell>
        <mxCell id="nBsVzfsCoDJfUNaghlDf-11" value="tickets" style="rounded=0;whiteSpace=wrap;html=1;fontSize=19;fillColor=#d5e8d4;strokeColor=#82b366;" parent="nBsVzfsCoDJfUNaghlDf-1" vertex="1">
          <mxGeometry x="730" y="220" width="120" height="40" as="geometry" />
        </mxCell>
        <mxCell id="nBsVzfsCoDJfUNaghlDf-12" value="orders" style="rounded=0;whiteSpace=wrap;html=1;fontSize=19;fillColor=#d5e8d4;strokeColor=#82b366;" parent="nBsVzfsCoDJfUNaghlDf-1" vertex="1">
          <mxGeometry x="940" y="220" width="120" height="40" as="geometry" />
        </mxCell>
        <mxCell id="nBsVzfsCoDJfUNaghlDf-13" value="tickets" style="rounded=0;whiteSpace=wrap;html=1;fontSize=19;fillColor=#e1d5e7;strokeColor=#9673a6;" parent="nBsVzfsCoDJfUNaghlDf-1" vertex="1">
          <mxGeometry x="940" y="270" width="120" height="40" as="geometry" />
        </mxCell>
        <mxCell id="nBsVzfsCoDJfUNaghlDf-14" value="charges" style="rounded=0;whiteSpace=wrap;html=1;fontSize=19;fillColor=#d5e8d4;strokeColor=#82b366;" parent="nBsVzfsCoDJfUNaghlDf-1" vertex="1">
          <mxGeometry x="1160" y="220" width="120" height="40" as="geometry" />
        </mxCell>
        <mxCell id="nBsVzfsCoDJfUNaghlDf-15" value="orders" style="rounded=0;whiteSpace=wrap;html=1;fontSize=19;fillColor=#e1d5e7;strokeColor=#9673a6;" parent="nBsVzfsCoDJfUNaghlDf-1" vertex="1">
          <mxGeometry x="1160" y="270" width="120" height="40" as="geometry" />
        </mxCell>
        <mxCell id="nBsVzfsCoDJfUNaghlDf-16" style="edgeStyle=orthogonalEdgeStyle;rounded=0;orthogonalLoop=1;jettySize=auto;html=1;exitX=1;exitY=0.5;exitDx=0;exitDy=0;fontSize=23;" parent="nBsVzfsCoDJfUNaghlDf-1" source="nBsVzfsCoDJfUNaghlDf-17" target="nBsVzfsCoDJfUNaghlDf-6" edge="1">
          <mxGeometry relative="1" as="geometry" />
        </mxCell>
        <mxCell id="nBsVzfsCoDJfUNaghlDf-17" value="&lt;span&gt;ticket:updated&lt;/span&gt;" style="rounded=0;whiteSpace=wrap;html=1;fontSize=17;fillColor=#f8cecc;strokeColor=#b85450;fontStyle=0" parent="nBsVzfsCoDJfUNaghlDf-1" vertex="1">
          <mxGeometry x="715" y="360" width="150" height="40" as="geometry" />
        </mxCell>
        <mxCell id="nBsVzfsCoDJfUNaghlDf-18" value="Events Published by Each Service" style="text;html=1;strokeColor=none;fillColor=none;align=center;verticalAlign=middle;whiteSpace=wrap;rounded=0;fontSize=20;fontStyle=1" parent="nBsVzfsCoDJfUNaghlDf-1" vertex="1">
          <mxGeometry x="925" y="140" width="360" height="20" as="geometry" />
        </mxCell>
        <mxCell id="nBsVzfsCoDJfUNaghlDf-19" value="Orders service needs to know when the price of a ticket has changed" style="rounded=0;whiteSpace=wrap;html=1;fontSize=14;" parent="nBsVzfsCoDJfUNaghlDf-1" vertex="1">
          <mxGeometry x="910" y="380" width="280" height="40" as="geometry" />
        </mxCell>
        <mxCell id="nBsVzfsCoDJfUNaghlDf-20" value="Orders service needs to know when a ticket has successfully been reserved" style="rounded=0;whiteSpace=wrap;html=1;fontSize=14;" parent="nBsVzfsCoDJfUNaghlDf-1" vertex="1">
          <mxGeometry x="910" y="420" width="280" height="40" as="geometry" />
        </mxCell>
      </root>
    </mxGraphModel>
  </diagram>
  <diagram name="order:created" id="wv0pKJde7Jya9Rob1PK5">
    <mxGraphModel dx="910" dy="448" grid="1" gridSize="10" guides="1" tooltips="1" connect="1" arrows="1" fold="1" page="1" pageScale="1" pageWidth="1920" pageHeight="1200" math="0" shadow="0">
      <root>
        <mxCell id="3u5cHUID9SENE1VYL8iP-0" />
        <mxCell id="3u5cHUID9SENE1VYL8iP-1" parent="3u5cHUID9SENE1VYL8iP-0" />
        <mxCell id="3u5cHUID9SENE1VYL8iP-2" value="Tickets Service" style="rounded=0;whiteSpace=wrap;html=1;fontSize=19;fillColor=#f5f5f5;strokeColor=#666666;fontColor=#333333;fontStyle=1" parent="3u5cHUID9SENE1VYL8iP-1" vertex="1">
          <mxGeometry x="700" y="180" width="180" height="25" as="geometry" />
        </mxCell>
        <mxCell id="3u5cHUID9SENE1VYL8iP-4" value="" style="rounded=0;whiteSpace=wrap;html=1;fontSize=22;fillColor=#f5f5f5;strokeColor=#666666;fontColor=#333333;fontStyle=1" parent="3u5cHUID9SENE1VYL8iP-1" vertex="1">
          <mxGeometry x="700" y="205" width="180" height="130" as="geometry" />
        </mxCell>
        <mxCell id="3u5cHUID9SENE1VYL8iP-5" value="Orders Service" style="rounded=0;whiteSpace=wrap;html=1;fontSize=19;fillColor=#f5f5f5;strokeColor=#666666;fontColor=#333333;fontStyle=1" parent="3u5cHUID9SENE1VYL8iP-1" vertex="1">
          <mxGeometry x="910" y="180" width="180" height="25" as="geometry" />
        </mxCell>
        <mxCell id="3u5cHUID9SENE1VYL8iP-6" style="edgeStyle=orthogonalEdgeStyle;rounded=0;orthogonalLoop=1;jettySize=auto;html=1;exitX=0.5;exitY=1;exitDx=0;exitDy=0;fontSize=17;" parent="3u5cHUID9SENE1VYL8iP-1" source="3u5cHUID9SENE1VYL8iP-7" target="3u5cHUID9SENE1VYL8iP-21" edge="1">
          <mxGeometry relative="1" as="geometry" />
        </mxCell>
        <mxCell id="3u5cHUID9SENE1VYL8iP-7" value="" style="rounded=0;whiteSpace=wrap;html=1;fontSize=22;fillColor=#f5f5f5;strokeColor=#666666;fontColor=#333333;fontStyle=1" parent="3u5cHUID9SENE1VYL8iP-1" vertex="1">
          <mxGeometry x="910" y="205" width="180" height="130" as="geometry" />
        </mxCell>
        <mxCell id="3u5cHUID9SENE1VYL8iP-8" value="Expiration Service" style="rounded=0;whiteSpace=wrap;html=1;fontSize=19;fillColor=#f5f5f5;strokeColor=#666666;fontColor=#333333;fontStyle=1" parent="3u5cHUID9SENE1VYL8iP-1" vertex="1">
          <mxGeometry x="1340" y="180" width="180" height="25" as="geometry" />
        </mxCell>
        <mxCell id="3u5cHUID9SENE1VYL8iP-10" value="" style="rounded=0;whiteSpace=wrap;html=1;fontSize=22;fillColor=#f5f5f5;strokeColor=#666666;fontColor=#333333;fontStyle=1" parent="3u5cHUID9SENE1VYL8iP-1" vertex="1">
          <mxGeometry x="1340" y="205" width="180" height="130" as="geometry" />
        </mxCell>
        <mxCell id="3u5cHUID9SENE1VYL8iP-11" value="Payments Service" style="rounded=0;whiteSpace=wrap;html=1;fontSize=19;fillColor=#f5f5f5;strokeColor=#666666;fontColor=#333333;fontStyle=1" parent="3u5cHUID9SENE1VYL8iP-1" vertex="1">
          <mxGeometry x="1130" y="180" width="180" height="25" as="geometry" />
        </mxCell>
        <mxCell id="3u5cHUID9SENE1VYL8iP-13" value="" style="rounded=0;whiteSpace=wrap;html=1;fontSize=22;fillColor=#f5f5f5;strokeColor=#666666;fontColor=#333333;fontStyle=1" parent="3u5cHUID9SENE1VYL8iP-1" vertex="1">
          <mxGeometry x="1130" y="205" width="180" height="130" as="geometry" />
        </mxCell>
        <mxCell id="3u5cHUID9SENE1VYL8iP-14" value="tickets" style="rounded=0;whiteSpace=wrap;html=1;fontSize=19;fillColor=#d5e8d4;strokeColor=#82b366;" parent="3u5cHUID9SENE1VYL8iP-1" vertex="1">
          <mxGeometry x="730" y="220" width="120" height="40" as="geometry" />
        </mxCell>
        <mxCell id="3u5cHUID9SENE1VYL8iP-15" value="orders" style="rounded=0;whiteSpace=wrap;html=1;fontSize=19;fillColor=#d5e8d4;strokeColor=#82b366;" parent="3u5cHUID9SENE1VYL8iP-1" vertex="1">
          <mxGeometry x="940" y="220" width="120" height="40" as="geometry" />
        </mxCell>
        <mxCell id="3u5cHUID9SENE1VYL8iP-16" value="tickets" style="rounded=0;whiteSpace=wrap;html=1;fontSize=19;fillColor=#e1d5e7;strokeColor=#9673a6;" parent="3u5cHUID9SENE1VYL8iP-1" vertex="1">
          <mxGeometry x="940" y="270" width="120" height="40" as="geometry" />
        </mxCell>
        <mxCell id="3u5cHUID9SENE1VYL8iP-17" value="charges" style="rounded=0;whiteSpace=wrap;html=1;fontSize=19;fillColor=#d5e8d4;strokeColor=#82b366;" parent="3u5cHUID9SENE1VYL8iP-1" vertex="1">
          <mxGeometry x="1160" y="220" width="120" height="40" as="geometry" />
        </mxCell>
        <mxCell id="3u5cHUID9SENE1VYL8iP-18" value="orders" style="rounded=0;whiteSpace=wrap;html=1;fontSize=19;fillColor=#e1d5e7;strokeColor=#9673a6;" parent="3u5cHUID9SENE1VYL8iP-1" vertex="1">
          <mxGeometry x="1160" y="270" width="120" height="40" as="geometry" />
        </mxCell>
        <mxCell id="QL-yinFOZZvO3_ZusUWX-2" style="edgeStyle=orthogonalEdgeStyle;rounded=0;orthogonalLoop=1;jettySize=auto;html=1;exitX=0;exitY=0.5;exitDx=0;exitDy=0;entryX=0.5;entryY=1;entryDx=0;entryDy=0;fontSize=14;" parent="3u5cHUID9SENE1VYL8iP-1" source="3u5cHUID9SENE1VYL8iP-21" target="3u5cHUID9SENE1VYL8iP-4" edge="1">
          <mxGeometry relative="1" as="geometry" />
        </mxCell>
        <mxCell id="QL-yinFOZZvO3_ZusUWX-3" style="edgeStyle=orthogonalEdgeStyle;rounded=0;orthogonalLoop=1;jettySize=auto;html=1;exitX=1;exitY=0.5;exitDx=0;exitDy=0;entryX=0.5;entryY=1;entryDx=0;entryDy=0;fontSize=14;" parent="3u5cHUID9SENE1VYL8iP-1" source="3u5cHUID9SENE1VYL8iP-21" target="3u5cHUID9SENE1VYL8iP-13" edge="1">
          <mxGeometry relative="1" as="geometry" />
        </mxCell>
        <mxCell id="QL-yinFOZZvO3_ZusUWX-4" style="edgeStyle=orthogonalEdgeStyle;rounded=0;orthogonalLoop=1;jettySize=auto;html=1;exitX=0.75;exitY=1;exitDx=0;exitDy=0;fontSize=14;" parent="3u5cHUID9SENE1VYL8iP-1" source="3u5cHUID9SENE1VYL8iP-21" target="3u5cHUID9SENE1VYL8iP-10" edge="1">
          <mxGeometry relative="1" as="geometry">
            <Array as="points">
              <mxPoint x="1037" y="480" />
              <mxPoint x="1430" y="480" />
            </Array>
          </mxGeometry>
        </mxCell>
        <mxCell id="3u5cHUID9SENE1VYL8iP-21" value="order:created" style="rounded=0;whiteSpace=wrap;html=1;fontSize=17;fillColor=#f8cecc;strokeColor=#b85450;" parent="3u5cHUID9SENE1VYL8iP-1" vertex="1">
          <mxGeometry x="925" y="360" width="150" height="40" as="geometry" />
        </mxCell>
        <mxCell id="3u5cHUID9SENE1VYL8iP-24" value="Events Published by Each Service" style="text;html=1;strokeColor=none;fillColor=none;align=center;verticalAlign=middle;whiteSpace=wrap;rounded=0;fontSize=20;fontStyle=1" parent="3u5cHUID9SENE1VYL8iP-1" vertex="1">
          <mxGeometry x="925" y="140" width="360" height="20" as="geometry" />
        </mxCell>
        <mxCell id="QL-yinFOZZvO3_ZusUWX-0" value="Tickets service needs to be told that one of its tickets has been reserved, and no further edits to that ticket should be allowed" style="rounded=0;whiteSpace=wrap;html=1;fontSize=14;" parent="3u5cHUID9SENE1VYL8iP-1" vertex="1">
          <mxGeometry x="620" y="380" width="280" height="60" as="geometry" />
        </mxCell>
        <mxCell id="QL-yinFOZZvO3_ZusUWX-1" value="Payments service needs to know there is a new order that a user might submit a payment for" style="rounded=0;whiteSpace=wrap;html=1;fontSize=14;" parent="3u5cHUID9SENE1VYL8iP-1" vertex="1">
          <mxGeometry x="1100" y="380" width="200" height="70" as="geometry" />
        </mxCell>
        <mxCell id="QL-yinFOZZvO3_ZusUWX-5" value="Expiration service needs to start a 15 minute timer to eventually time out this order" style="rounded=0;whiteSpace=wrap;html=1;fontSize=14;" parent="3u5cHUID9SENE1VYL8iP-1" vertex="1">
          <mxGeometry x="1080" y="480" width="200" height="50" as="geometry" />
        </mxCell>
      </root>
    </mxGraphModel>
  </diagram>
  <diagram name="order:cancelled" id="AP15blwhLuR43c5g7SAs">
    <mxGraphModel dx="910" dy="448" grid="1" gridSize="10" guides="1" tooltips="1" connect="1" arrows="1" fold="1" page="1" pageScale="1" pageWidth="1920" pageHeight="1200" math="0" shadow="0">
      <root>
        <mxCell id="ivzruJvGXnL_ElyHbdAM-0" />
        <mxCell id="ivzruJvGXnL_ElyHbdAM-1" parent="ivzruJvGXnL_ElyHbdAM-0" />
        <mxCell id="ivzruJvGXnL_ElyHbdAM-2" value="Tickets Service" style="rounded=0;whiteSpace=wrap;html=1;fontSize=19;fillColor=#f5f5f5;strokeColor=#666666;fontColor=#333333;fontStyle=1" parent="ivzruJvGXnL_ElyHbdAM-1" vertex="1">
          <mxGeometry x="700" y="180" width="180" height="25" as="geometry" />
        </mxCell>
        <mxCell id="ivzruJvGXnL_ElyHbdAM-4" value="" style="rounded=0;whiteSpace=wrap;html=1;fontSize=22;fillColor=#f5f5f5;strokeColor=#666666;fontColor=#333333;fontStyle=1" parent="ivzruJvGXnL_ElyHbdAM-1" vertex="1">
          <mxGeometry x="700" y="205" width="180" height="130" as="geometry" />
        </mxCell>
        <mxCell id="ivzruJvGXnL_ElyHbdAM-5" value="Orders Service" style="rounded=0;whiteSpace=wrap;html=1;fontSize=19;fillColor=#f5f5f5;strokeColor=#666666;fontColor=#333333;fontStyle=1" parent="ivzruJvGXnL_ElyHbdAM-1" vertex="1">
          <mxGeometry x="910" y="180" width="180" height="25" as="geometry" />
        </mxCell>
        <mxCell id="ivzruJvGXnL_ElyHbdAM-6" style="edgeStyle=orthogonalEdgeStyle;rounded=0;orthogonalLoop=1;jettySize=auto;html=1;exitX=0.5;exitY=1;exitDx=0;exitDy=0;fontSize=17;" parent="ivzruJvGXnL_ElyHbdAM-1" source="ivzruJvGXnL_ElyHbdAM-7" target="ivzruJvGXnL_ElyHbdAM-21" edge="1">
          <mxGeometry relative="1" as="geometry" />
        </mxCell>
        <mxCell id="ivzruJvGXnL_ElyHbdAM-7" value="" style="rounded=0;whiteSpace=wrap;html=1;fontSize=22;fillColor=#f5f5f5;strokeColor=#666666;fontColor=#333333;fontStyle=1" parent="ivzruJvGXnL_ElyHbdAM-1" vertex="1">
          <mxGeometry x="910" y="205" width="180" height="130" as="geometry" />
        </mxCell>
        <mxCell id="ivzruJvGXnL_ElyHbdAM-8" value="Expiration Service" style="rounded=0;whiteSpace=wrap;html=1;fontSize=19;fillColor=#f5f5f5;strokeColor=#666666;fontColor=#333333;fontStyle=1" parent="ivzruJvGXnL_ElyHbdAM-1" vertex="1">
          <mxGeometry x="1340" y="180" width="180" height="25" as="geometry" />
        </mxCell>
        <mxCell id="ivzruJvGXnL_ElyHbdAM-10" value="" style="rounded=0;whiteSpace=wrap;html=1;fontSize=22;fillColor=#f5f5f5;strokeColor=#666666;fontColor=#333333;fontStyle=1" parent="ivzruJvGXnL_ElyHbdAM-1" vertex="1">
          <mxGeometry x="1340" y="205" width="180" height="130" as="geometry" />
        </mxCell>
        <mxCell id="ivzruJvGXnL_ElyHbdAM-11" value="Payments Service" style="rounded=0;whiteSpace=wrap;html=1;fontSize=19;fillColor=#f5f5f5;strokeColor=#666666;fontColor=#333333;fontStyle=1" parent="ivzruJvGXnL_ElyHbdAM-1" vertex="1">
          <mxGeometry x="1130" y="180" width="180" height="25" as="geometry" />
        </mxCell>
        <mxCell id="ivzruJvGXnL_ElyHbdAM-13" value="" style="rounded=0;whiteSpace=wrap;html=1;fontSize=22;fillColor=#f5f5f5;strokeColor=#666666;fontColor=#333333;fontStyle=1" parent="ivzruJvGXnL_ElyHbdAM-1" vertex="1">
          <mxGeometry x="1130" y="205" width="180" height="130" as="geometry" />
        </mxCell>
        <mxCell id="ivzruJvGXnL_ElyHbdAM-14" value="tickets" style="rounded=0;whiteSpace=wrap;html=1;fontSize=19;fillColor=#d5e8d4;strokeColor=#82b366;" parent="ivzruJvGXnL_ElyHbdAM-1" vertex="1">
          <mxGeometry x="730" y="220" width="120" height="40" as="geometry" />
        </mxCell>
        <mxCell id="ivzruJvGXnL_ElyHbdAM-15" value="orders" style="rounded=0;whiteSpace=wrap;html=1;fontSize=19;fillColor=#d5e8d4;strokeColor=#82b366;" parent="ivzruJvGXnL_ElyHbdAM-1" vertex="1">
          <mxGeometry x="940" y="220" width="120" height="40" as="geometry" />
        </mxCell>
        <mxCell id="ivzruJvGXnL_ElyHbdAM-16" value="tickets" style="rounded=0;whiteSpace=wrap;html=1;fontSize=19;fillColor=#e1d5e7;strokeColor=#9673a6;" parent="ivzruJvGXnL_ElyHbdAM-1" vertex="1">
          <mxGeometry x="940" y="270" width="120" height="40" as="geometry" />
        </mxCell>
        <mxCell id="ivzruJvGXnL_ElyHbdAM-17" value="charges" style="rounded=0;whiteSpace=wrap;html=1;fontSize=19;fillColor=#d5e8d4;strokeColor=#82b366;" parent="ivzruJvGXnL_ElyHbdAM-1" vertex="1">
          <mxGeometry x="1160" y="220" width="120" height="40" as="geometry" />
        </mxCell>
        <mxCell id="ivzruJvGXnL_ElyHbdAM-18" value="orders" style="rounded=0;whiteSpace=wrap;html=1;fontSize=19;fillColor=#e1d5e7;strokeColor=#9673a6;" parent="ivzruJvGXnL_ElyHbdAM-1" vertex="1">
          <mxGeometry x="1160" y="270" width="120" height="40" as="geometry" />
        </mxCell>
        <mxCell id="ivzruJvGXnL_ElyHbdAM-26" style="edgeStyle=orthogonalEdgeStyle;rounded=0;orthogonalLoop=1;jettySize=auto;html=1;exitX=0;exitY=0.5;exitDx=0;exitDy=0;fontSize=14;" parent="ivzruJvGXnL_ElyHbdAM-1" source="ivzruJvGXnL_ElyHbdAM-21" target="ivzruJvGXnL_ElyHbdAM-4" edge="1">
          <mxGeometry relative="1" as="geometry" />
        </mxCell>
        <mxCell id="JS01PvH6wqp_yfsC-QqR-1" style="edgeStyle=orthogonalEdgeStyle;rounded=0;orthogonalLoop=1;jettySize=auto;html=1;exitX=1;exitY=0.5;exitDx=0;exitDy=0;fontSize=14;" parent="ivzruJvGXnL_ElyHbdAM-1" source="ivzruJvGXnL_ElyHbdAM-21" target="ivzruJvGXnL_ElyHbdAM-13" edge="1">
          <mxGeometry relative="1" as="geometry" />
        </mxCell>
        <mxCell id="ivzruJvGXnL_ElyHbdAM-21" value="order:cancelled" style="rounded=0;whiteSpace=wrap;html=1;fontSize=17;fillColor=#f8cecc;strokeColor=#b85450;" parent="ivzruJvGXnL_ElyHbdAM-1" vertex="1">
          <mxGeometry x="925" y="360" width="150" height="40" as="geometry" />
        </mxCell>
        <mxCell id="ivzruJvGXnL_ElyHbdAM-24" value="Events Published by Each Service" style="text;html=1;strokeColor=none;fillColor=none;align=center;verticalAlign=middle;whiteSpace=wrap;rounded=0;fontSize=20;fontStyle=1" parent="ivzruJvGXnL_ElyHbdAM-1" vertex="1">
          <mxGeometry x="925" y="140" width="360" height="20" as="geometry" />
        </mxCell>
        <mxCell id="JS01PvH6wqp_yfsC-QqR-0" value="Tickets service should unreserve a ticket if the corresponding order has been cancelled so this ticket can be edited again" style="rounded=0;whiteSpace=wrap;html=1;fontSize=14;" parent="ivzruJvGXnL_ElyHbdAM-1" vertex="1">
          <mxGeometry x="620" y="380" width="280" height="60" as="geometry" />
        </mxCell>
        <mxCell id="JS01PvH6wqp_yfsC-QqR-2" value="Payments should know that any incoming payments for this order should be rejected" style="rounded=0;whiteSpace=wrap;html=1;fontSize=14;" parent="ivzruJvGXnL_ElyHbdAM-1" vertex="1">
          <mxGeometry x="1100" y="380" width="280" height="60" as="geometry" />
        </mxCell>
      </root>
    </mxGraphModel>
  </diagram>
  <diagram name="charge:created" id="ekexYs5U_T113yH3N2UN">
    <mxGraphModel dx="834" dy="411" grid="1" gridSize="10" guides="1" tooltips="1" connect="1" arrows="1" fold="1" page="1" pageScale="1" pageWidth="1920" pageHeight="1200" math="0" shadow="0">
      <root>
        <mxCell id="MRmFmuMRFIv-2dhIKDFl-0" />
        <mxCell id="MRmFmuMRFIv-2dhIKDFl-1" parent="MRmFmuMRFIv-2dhIKDFl-0" />
        <mxCell id="MRmFmuMRFIv-2dhIKDFl-2" value="Tickets Service" style="rounded=0;whiteSpace=wrap;html=1;fontSize=19;fillColor=#f5f5f5;strokeColor=#666666;fontColor=#333333;fontStyle=1" parent="MRmFmuMRFIv-2dhIKDFl-1" vertex="1">
          <mxGeometry x="700" y="180" width="180" height="25" as="geometry" />
        </mxCell>
        <mxCell id="MRmFmuMRFIv-2dhIKDFl-4" value="" style="rounded=0;whiteSpace=wrap;html=1;fontSize=22;fillColor=#f5f5f5;strokeColor=#666666;fontColor=#333333;fontStyle=1" parent="MRmFmuMRFIv-2dhIKDFl-1" vertex="1">
          <mxGeometry x="700" y="205" width="180" height="130" as="geometry" />
        </mxCell>
        <mxCell id="MRmFmuMRFIv-2dhIKDFl-5" value="Orders Service" style="rounded=0;whiteSpace=wrap;html=1;fontSize=19;fillColor=#f5f5f5;strokeColor=#666666;fontColor=#333333;fontStyle=1" parent="MRmFmuMRFIv-2dhIKDFl-1" vertex="1">
          <mxGeometry x="910" y="180" width="180" height="25" as="geometry" />
        </mxCell>
        <mxCell id="MRmFmuMRFIv-2dhIKDFl-7" value="" style="rounded=0;whiteSpace=wrap;html=1;fontSize=22;fillColor=#f5f5f5;strokeColor=#666666;fontColor=#333333;fontStyle=1" parent="MRmFmuMRFIv-2dhIKDFl-1" vertex="1">
          <mxGeometry x="910" y="205" width="180" height="130" as="geometry" />
        </mxCell>
        <mxCell id="MRmFmuMRFIv-2dhIKDFl-8" value="Expiration Service" style="rounded=0;whiteSpace=wrap;html=1;fontSize=19;fillColor=#f5f5f5;strokeColor=#666666;fontColor=#333333;fontStyle=1" parent="MRmFmuMRFIv-2dhIKDFl-1" vertex="1">
          <mxGeometry x="1340" y="180" width="180" height="25" as="geometry" />
        </mxCell>
        <mxCell id="MRmFmuMRFIv-2dhIKDFl-10" value="" style="rounded=0;whiteSpace=wrap;html=1;fontSize=22;fillColor=#f5f5f5;strokeColor=#666666;fontColor=#333333;fontStyle=1" parent="MRmFmuMRFIv-2dhIKDFl-1" vertex="1">
          <mxGeometry x="1340" y="205" width="180" height="130" as="geometry" />
        </mxCell>
        <mxCell id="MRmFmuMRFIv-2dhIKDFl-11" value="Payments Service" style="rounded=0;whiteSpace=wrap;html=1;fontSize=19;fillColor=#f5f5f5;strokeColor=#666666;fontColor=#333333;fontStyle=1" parent="MRmFmuMRFIv-2dhIKDFl-1" vertex="1">
          <mxGeometry x="1130" y="180" width="180" height="25" as="geometry" />
        </mxCell>
        <mxCell id="MRmFmuMRFIv-2dhIKDFl-12" style="edgeStyle=orthogonalEdgeStyle;rounded=0;orthogonalLoop=1;jettySize=auto;html=1;exitX=0.5;exitY=1;exitDx=0;exitDy=0;entryX=0.5;entryY=0;entryDx=0;entryDy=0;fontSize=17;" parent="MRmFmuMRFIv-2dhIKDFl-1" source="MRmFmuMRFIv-2dhIKDFl-13" target="MRmFmuMRFIv-2dhIKDFl-23" edge="1">
          <mxGeometry relative="1" as="geometry" />
        </mxCell>
        <mxCell id="MRmFmuMRFIv-2dhIKDFl-13" value="" style="rounded=0;whiteSpace=wrap;html=1;fontSize=22;fillColor=#f5f5f5;strokeColor=#666666;fontColor=#333333;fontStyle=1" parent="MRmFmuMRFIv-2dhIKDFl-1" vertex="1">
          <mxGeometry x="1130" y="205" width="180" height="130" as="geometry" />
        </mxCell>
        <mxCell id="MRmFmuMRFIv-2dhIKDFl-14" value="tickets" style="rounded=0;whiteSpace=wrap;html=1;fontSize=19;fillColor=#d5e8d4;strokeColor=#82b366;" parent="MRmFmuMRFIv-2dhIKDFl-1" vertex="1">
          <mxGeometry x="730" y="220" width="120" height="40" as="geometry" />
        </mxCell>
        <mxCell id="MRmFmuMRFIv-2dhIKDFl-15" value="orders" style="rounded=0;whiteSpace=wrap;html=1;fontSize=19;fillColor=#d5e8d4;strokeColor=#82b366;" parent="MRmFmuMRFIv-2dhIKDFl-1" vertex="1">
          <mxGeometry x="940" y="220" width="120" height="40" as="geometry" />
        </mxCell>
        <mxCell id="MRmFmuMRFIv-2dhIKDFl-16" value="tickets" style="rounded=0;whiteSpace=wrap;html=1;fontSize=19;fillColor=#e1d5e7;strokeColor=#9673a6;" parent="MRmFmuMRFIv-2dhIKDFl-1" vertex="1">
          <mxGeometry x="940" y="270" width="120" height="40" as="geometry" />
        </mxCell>
        <mxCell id="MRmFmuMRFIv-2dhIKDFl-17" value="charges" style="rounded=0;whiteSpace=wrap;html=1;fontSize=19;fillColor=#d5e8d4;strokeColor=#82b366;" parent="MRmFmuMRFIv-2dhIKDFl-1" vertex="1">
          <mxGeometry x="1160" y="220" width="120" height="40" as="geometry" />
        </mxCell>
        <mxCell id="MRmFmuMRFIv-2dhIKDFl-18" value="orders" style="rounded=0;whiteSpace=wrap;html=1;fontSize=19;fillColor=#e1d5e7;strokeColor=#9673a6;" parent="MRmFmuMRFIv-2dhIKDFl-1" vertex="1">
          <mxGeometry x="1160" y="270" width="120" height="40" as="geometry" />
        </mxCell>
        <mxCell id="iVsPoDOJxovzFBvBRD0F-1" style="edgeStyle=orthogonalEdgeStyle;rounded=0;orthogonalLoop=1;jettySize=auto;html=1;exitX=0;exitY=0.5;exitDx=0;exitDy=0;fontSize=14;" parent="MRmFmuMRFIv-2dhIKDFl-1" source="MRmFmuMRFIv-2dhIKDFl-23" target="MRmFmuMRFIv-2dhIKDFl-7" edge="1">
          <mxGeometry relative="1" as="geometry" />
        </mxCell>
        <mxCell id="MRmFmuMRFIv-2dhIKDFl-23" value="charge:created" style="rounded=0;whiteSpace=wrap;html=1;fontSize=17;fillColor=#f8cecc;strokeColor=#b85450;" parent="MRmFmuMRFIv-2dhIKDFl-1" vertex="1">
          <mxGeometry x="1145" y="360" width="150" height="40" as="geometry" />
        </mxCell>
        <mxCell id="MRmFmuMRFIv-2dhIKDFl-24" value="Events Published by Each Service" style="text;html=1;strokeColor=none;fillColor=none;align=center;verticalAlign=middle;whiteSpace=wrap;rounded=0;fontSize=20;fontStyle=1" parent="MRmFmuMRFIv-2dhIKDFl-1" vertex="1">
          <mxGeometry x="925" y="140" width="360" height="20" as="geometry" />
        </mxCell>
        <mxCell id="iVsPoDOJxovzFBvBRD0F-0" value="Orders service needs to know that an order has been paid for" style="rounded=0;whiteSpace=wrap;html=1;fontSize=14;" parent="MRmFmuMRFIv-2dhIKDFl-1" vertex="1">
          <mxGeometry x="840" y="380" width="280" height="60" as="geometry" />
        </mxCell>
      </root>
    </mxGraphModel>
  </diagram>
  <diagram name="expiration:complete" id="cNdEzBlnb9adNihBHiWc">
    <mxGraphModel dx="834" dy="411" grid="1" gridSize="10" guides="1" tooltips="1" connect="1" arrows="1" fold="1" page="1" pageScale="1" pageWidth="1920" pageHeight="1200" math="0" shadow="0">
      <root>
        <mxCell id="nqaTYYW_B4ES6d_DWvZ9-0" />
        <mxCell id="nqaTYYW_B4ES6d_DWvZ9-1" parent="nqaTYYW_B4ES6d_DWvZ9-0" />
        <mxCell id="nqaTYYW_B4ES6d_DWvZ9-2" value="Tickets Service" style="rounded=0;whiteSpace=wrap;html=1;fontSize=19;fillColor=#f5f5f5;strokeColor=#666666;fontColor=#333333;fontStyle=1" parent="nqaTYYW_B4ES6d_DWvZ9-1" vertex="1">
          <mxGeometry x="700" y="180" width="180" height="25" as="geometry" />
        </mxCell>
        <mxCell id="nqaTYYW_B4ES6d_DWvZ9-4" value="" style="rounded=0;whiteSpace=wrap;html=1;fontSize=22;fillColor=#f5f5f5;strokeColor=#666666;fontColor=#333333;fontStyle=1" parent="nqaTYYW_B4ES6d_DWvZ9-1" vertex="1">
          <mxGeometry x="700" y="205" width="180" height="130" as="geometry" />
        </mxCell>
        <mxCell id="nqaTYYW_B4ES6d_DWvZ9-5" value="Orders Service" style="rounded=0;whiteSpace=wrap;html=1;fontSize=19;fillColor=#f5f5f5;strokeColor=#666666;fontColor=#333333;fontStyle=1" parent="nqaTYYW_B4ES6d_DWvZ9-1" vertex="1">
          <mxGeometry x="910" y="180" width="180" height="25" as="geometry" />
        </mxCell>
        <mxCell id="nqaTYYW_B4ES6d_DWvZ9-7" value="" style="rounded=0;whiteSpace=wrap;html=1;fontSize=22;fillColor=#f5f5f5;strokeColor=#666666;fontColor=#333333;fontStyle=1" parent="nqaTYYW_B4ES6d_DWvZ9-1" vertex="1">
          <mxGeometry x="910" y="205" width="180" height="130" as="geometry" />
        </mxCell>
        <mxCell id="nqaTYYW_B4ES6d_DWvZ9-8" value="Expiration Service" style="rounded=0;whiteSpace=wrap;html=1;fontSize=19;fillColor=#f5f5f5;strokeColor=#666666;fontColor=#333333;fontStyle=1" parent="nqaTYYW_B4ES6d_DWvZ9-1" vertex="1">
          <mxGeometry x="1340" y="180" width="180" height="25" as="geometry" />
        </mxCell>
        <mxCell id="nqaTYYW_B4ES6d_DWvZ9-9" style="edgeStyle=orthogonalEdgeStyle;rounded=0;orthogonalLoop=1;jettySize=auto;html=1;exitX=0.5;exitY=1;exitDx=0;exitDy=0;entryX=0.5;entryY=0;entryDx=0;entryDy=0;fontSize=14;" parent="nqaTYYW_B4ES6d_DWvZ9-1" source="nqaTYYW_B4ES6d_DWvZ9-10" target="nqaTYYW_B4ES6d_DWvZ9-25" edge="1">
          <mxGeometry relative="1" as="geometry" />
        </mxCell>
        <mxCell id="nqaTYYW_B4ES6d_DWvZ9-10" value="" style="rounded=0;whiteSpace=wrap;html=1;fontSize=22;fillColor=#f5f5f5;strokeColor=#666666;fontColor=#333333;fontStyle=1" parent="nqaTYYW_B4ES6d_DWvZ9-1" vertex="1">
          <mxGeometry x="1340" y="205" width="180" height="130" as="geometry" />
        </mxCell>
        <mxCell id="nqaTYYW_B4ES6d_DWvZ9-11" value="Payments Service" style="rounded=0;whiteSpace=wrap;html=1;fontSize=19;fillColor=#f5f5f5;strokeColor=#666666;fontColor=#333333;fontStyle=1" parent="nqaTYYW_B4ES6d_DWvZ9-1" vertex="1">
          <mxGeometry x="1130" y="180" width="180" height="25" as="geometry" />
        </mxCell>
        <mxCell id="nqaTYYW_B4ES6d_DWvZ9-13" value="" style="rounded=0;whiteSpace=wrap;html=1;fontSize=22;fillColor=#f5f5f5;strokeColor=#666666;fontColor=#333333;fontStyle=1" parent="nqaTYYW_B4ES6d_DWvZ9-1" vertex="1">
          <mxGeometry x="1130" y="205" width="180" height="130" as="geometry" />
        </mxCell>
        <mxCell id="nqaTYYW_B4ES6d_DWvZ9-14" value="tickets" style="rounded=0;whiteSpace=wrap;html=1;fontSize=19;fillColor=#d5e8d4;strokeColor=#82b366;" parent="nqaTYYW_B4ES6d_DWvZ9-1" vertex="1">
          <mxGeometry x="730" y="220" width="120" height="40" as="geometry" />
        </mxCell>
        <mxCell id="nqaTYYW_B4ES6d_DWvZ9-15" value="orders" style="rounded=0;whiteSpace=wrap;html=1;fontSize=19;fillColor=#d5e8d4;strokeColor=#82b366;" parent="nqaTYYW_B4ES6d_DWvZ9-1" vertex="1">
          <mxGeometry x="940" y="220" width="120" height="40" as="geometry" />
        </mxCell>
        <mxCell id="nqaTYYW_B4ES6d_DWvZ9-16" value="tickets" style="rounded=0;whiteSpace=wrap;html=1;fontSize=19;fillColor=#e1d5e7;strokeColor=#9673a6;" parent="nqaTYYW_B4ES6d_DWvZ9-1" vertex="1">
          <mxGeometry x="940" y="270" width="120" height="40" as="geometry" />
        </mxCell>
        <mxCell id="nqaTYYW_B4ES6d_DWvZ9-17" value="charges" style="rounded=0;whiteSpace=wrap;html=1;fontSize=19;fillColor=#d5e8d4;strokeColor=#82b366;" parent="nqaTYYW_B4ES6d_DWvZ9-1" vertex="1">
          <mxGeometry x="1160" y="220" width="120" height="40" as="geometry" />
        </mxCell>
        <mxCell id="nqaTYYW_B4ES6d_DWvZ9-18" value="orders" style="rounded=0;whiteSpace=wrap;html=1;fontSize=19;fillColor=#e1d5e7;strokeColor=#9673a6;" parent="nqaTYYW_B4ES6d_DWvZ9-1" vertex="1">
          <mxGeometry x="1160" y="270" width="120" height="40" as="geometry" />
        </mxCell>
        <mxCell id="nqaTYYW_B4ES6d_DWvZ9-24" value="Events Published by Each Service" style="text;html=1;strokeColor=none;fillColor=none;align=center;verticalAlign=middle;whiteSpace=wrap;rounded=0;fontSize=20;fontStyle=1" parent="nqaTYYW_B4ES6d_DWvZ9-1" vertex="1">
          <mxGeometry x="925" y="140" width="360" height="20" as="geometry" />
        </mxCell>
        <mxCell id="ZWfU_CW8xpi1Z24Qrqzk-1" style="edgeStyle=orthogonalEdgeStyle;rounded=0;orthogonalLoop=1;jettySize=auto;html=1;exitX=0;exitY=0.5;exitDx=0;exitDy=0;fontSize=14;" parent="nqaTYYW_B4ES6d_DWvZ9-1" source="nqaTYYW_B4ES6d_DWvZ9-25" target="nqaTYYW_B4ES6d_DWvZ9-7" edge="1">
          <mxGeometry relative="1" as="geometry" />
        </mxCell>
        <mxCell id="nqaTYYW_B4ES6d_DWvZ9-25" value="expiration:complete" style="rounded=0;whiteSpace=wrap;html=1;fontSize=15;fillColor=#f8cecc;strokeColor=#b85450;" parent="nqaTYYW_B4ES6d_DWvZ9-1" vertex="1">
          <mxGeometry x="1355" y="360" width="150" height="40" as="geometry" />
        </mxCell>
        <mxCell id="ZWfU_CW8xpi1Z24Qrqzk-0" value="Orders service needs to know that an order has gone over the 15 minute time limit.&amp;nbsp; It is up to the orders service to decide whether or not to cancel the order (it might have already been paid!!!)" style="rounded=0;whiteSpace=wrap;html=1;fontSize=14;" parent="nqaTYYW_B4ES6d_DWvZ9-1" vertex="1">
          <mxGeometry x="1020" y="380" width="290" height="90" as="geometry" />
        </mxCell>
      </root>
    </mxGraphModel>
  </diagram>
</mxfile>
